<?xml version="1.0" encoding="utf-8"?>
<!-- Generator: Adobe Illustrator 16.0.4, SVG Export Plug-In . SVG Version: 6.00 Build 0)  -->
<!DOCTYPE svg PUBLIC "-//W3C//DTD SVG 1.1//EN" "http://www.w3.org/Graphics/SVG/1.1/DTD/svg11.dtd">
<svg version="1.1" id="Layer_1" xmlns="http://www.w3.org/2000/svg" xmlns:xlink="http://www.w3.org/1999/xlink" x="0px" y="0px"
	 width="841.89px" height="595.28px" viewBox="0 0 841.89 595.28" enable-background="new 0 0 841.89 595.28" xml:space="preserve">
<g>
	<path fill-rule="evenodd" clip-rule="evenodd" fill="#646464" d="M456.084,255.198c-0.442-1.433-0.767,0.284-0.917-1.25
		c-0.036-0.367,0.232,1.708-0.251,1.632c-0.607-0.095-0.875,0.421-0.996,0.83c-0.771,2.596-1.883,5.38-0.254,7.828
		c0.982,1.476,1.798,2.726,1.578,4.505c-0.015,0.125,0.152,0.272,0.233,0.41c1.79,3.023,3.764,5.915,6.228,8.437
		c1.59,1.627,3.554,2.368,5.836,2.278c0.957-0.038,1.916-0.002,2.873-0.023c0.497-0.011,0.962-0.104,0.89-0.788
		c-0.036-0.335,0.645,0.761,0.947,0.559c1.314-0.878,2.932,1.196,2.004-0.083c-0.086-0.118,2.543,0.317,2.496,0.167
		c0.256-0.598,3.624-4.052,4.039-3.925c1.674,0.512-4.2-1.347-2.572-0.185c1.783-0.974,0.506-0.004,0.555-0.244
		c0.144-0.708,0.726-0.862,1.213-1.238c0.933-0.72,0.698-1.675-0.154-2.434c-0.409-0.364-0.653-0.783-0.154-1.179
		c0.358-0.285,0.705-0.02,1.018,0.294c0.532,0.535,0.626,1.675,1.598,1.553c0.762-0.096,1.442-0.609,1.855-1.378
		c0.306-0.57,0.959-0.657,1.482-0.552c1.406,0.282,1.94-0.585,2.455-1.542c-0.24-0.361-0.491-0.521-0.824-0.593
		c-0.511-0.111-1.293,0.082-1.36-0.656c-0.064-0.693,0.108-1.431,0.297-2.116c0.125-0.452,0.624-0.421,1.021-0.377
		c1.904,0.212,3.81,0.416,5.708,0.667c0.629,0.083,0.994,0.465,0.859,1.174c-0.09,0.469-0.208,1.034,0.473,1.11
		c0.728,0.083,1.778,0.873,2.135-0.075c0.485-1.289-1.024-0.741-1.538-1.17c-0.119-0.101-0.246-0.193-0.526-0.412
		c1.3-0.672,2.544-0.211,3.731-0.117c3.168,0.252,6.331,0.563,9.49,0.903c1.851,0.199,3.666,0.638,5.558,0.578
		c0.772-0.024,1.664-0.037,2.12,1.102c0.302,0.757,1.424,0.487,2.202,0.567c1.4,0.144,1.4,0.137,2.26,1.417
		c1.465-4.133,1.425-8.428,2.003-12.617c0.403-2.926,0.665-5.871,0.999-8.806c0.036-0.313,0.113-0.625,0.201-0.928
		c0.504-1.736,2.522-2.258,3.767-0.865c0.393,0.439,0.582,0.842,1.246,0.785c1.931-0.167,3.797,0.484,5.72,0.495
		c0.468,0.002,1.026,0.042,1.385,0.292c0.892,0.621,1.551,0.582,2.187-0.334c0.361-0.522,0.964-0.533,1.528-0.412
		c3.332,0.717,6.861,0.163,10.088,1.561c2.387-0.67,4.726,0.061,7.081,0.253c2.448,0.2,2.591,0.362,2.429,2.75
		c-0.103,1.508-0.277,3.011-0.42,4.516c-0.052,0.971-0.104,1.941-0.156,2.913l0.028-0.062c-0.918,0.728,0.036,2.045-1.14,3.062
		c0.124-1.689,0.192-3.089,0.336-4.481c0.221-2.145,0.479-4.285,0.747-6.425c0.109-0.874-0.226-1.415-1.092-1.524
		c-1.821-0.231-3.649-0.408-5.473-0.624c-1.043-0.124-1.428,0.383-1.479,1.364c-0.059,1.115-0.197,2.227-0.312,3.34
		c-0.315,3.063-1.053,6.078-1.449,9.101c-1.15,8.78-1.779,17.627-2.645,26.446c-0.529,5.401-1.148,10.793-1.671,16.194
		c-0.6,6.197-1.097,12.406-1.732,18.6c-0.132,1.281,0.294,1.875,1.402,2.35c1.669,0.715,3.387,0.808,5.159,0.807
		c2.501-0.002,3.206,0.636,3.712,3.103c0.258,1.252,0.534,2.501,0.479,3.793c-0.18,4.27,0.647,8.396,1.697,12.504
		c0.603,2.361,1.374,4.628,2.449,6.834c1.121,2.3,1.653,4.816,1.638,7.42c-0.011,1.866,0.034,3.716-2.354,4.257
		c-0.111,0.025-0.18,0.241-0.392,0.544c2.053,0.009,2.629,1.124,2.306,2.916c-0.064,0.356-0.045,0.791,0.74,1.233
		c0.272-2.556,2.832-1.814,4.206-3.022c0.4-0.351,0.943-0.451,1.035-1.122c0.334-2.457,1.72-4.441,3.019-6.45
		c1.322-2.047,2.125-4.211,2.36-6.683c0.515-5.409,1.557-10.718,3.194-15.927c1.13-3.589,2.823-6.536,6.289-8.32
		c1.803-0.929,2.789-2.575,3.09-4.6c0.105-0.711,0.215-1.42,0.332-2.129c0.609-3.704,4.198-7.566,7.719-8.309
		c-0.467,1.128-1.559,1.537-2.485,2.115c-2.682,1.676-4.232,4.058-4.613,7.198c-0.01,0.08-0.023,0.159-0.027,0.238
		c-0.159,2.972-1.63,5.1-4.167,6.574c-1.819,1.059-3.423,2.311-4.232,4.393c-2.154,5.542-3.592,11.265-4.109,17.176
		c-0.309,3.51-1.131,6.741-3.246,9.606c-0.805,1.09-1.489,2.281-1.934,3.572c-0.512,1.49-0.12,1.896,1.764,1.932
		c0.195,1.241-0.603,1.945-1.445,2.6c-0.36,0.279-0.891,0.328-0.963,0.938c-0.215,1.805-0.891,3.609,0.012,5.405
		c0.883,1.757,0.646,3.401-0.47,4.959c-0.958,1.334-1.35,2.812-1.549,4.451c-0.508,4.159-0.268,8.539-3.157,12.094
		c-0.422,0.519-0.314,1.04,0.361,1.341c0.841,0.374,0.775,1.036,0.668,1.807c-0.255,1.815-0.418,3.645-0.626,5.542
		c0.48,0.162,0.917,0.357,1.374,0.456c7.884,1.685,15.73,3.586,23.666,4.978c10.218,1.792,20.489,3.316,30.771,4.702
		c16.783,2.263,33.381,5.566,50.035,8.562c5.495,0.988,10.949,2.313,16.559,2.525c1.963,0.074,3.806,0.201,5.1,1.938
		c0.062,0.084,0.295,0.042,0.484,0.062c0.66-0.604,0.454-1.453,0.541-2.208c0.229-1.984,0.368-3.98,0.624-5.961
		c0.546-4.231,0.56-4.159,4.901-3.649c8.014,0.941,16.039,1.785,24.058,2.685c6.51,0.73,13.017,1.485,19.526,2.223
		c3.571,0.405,7.147,0.767,10.714,1.209c1.188,0.146,1.662-0.162,1.812-1.44c0.669-5.712,1.482-11.407,2.194-17.114
		c1.208-9.673,2.401-19.347,3.558-29.025c1.08-9.04,2.153-18.082,3.112-27.135c0.2-1.88,0.727-3.76,0.467-6.011
		c-0.938,1.163-1.993,1.034-3.099,1.006c-1.42-0.037-2.991-0.196-4.204,0.578c-2.011,1.284-3.808,0.704-5.581-0.265
		c-0.89-0.485-1.743-0.293-2.594-0.421c-0.713-0.107-0.95-1.562-1.864-1.986c-0.354-0.164-0.784-0.153-1.16-0.282
		c-2.461-0.844-5.074-0.286-7.583-0.855c-1.281-0.291-2.604-0.573-3.973-0.539c-1.473,0.036-2.771,0.98-4.16,0.898
		c-2.704-0.159-5.399,0.216-8.116-0.161c-2.197-0.304-4.455-0.496-6.694-0.27c-4.087,0.412-8.16,0.879-12.197,1.711
		c-2.479,0.511-5.059,0.889-7.574,0.8c-5.091-0.179-10.178,0.042-15.266-0.101c-3.673-0.103-7.354,0.078-11.025-0.041
		c-2.945-0.095-5.881-0.494-8.824-0.677c-2.879-0.179-5.75-0.506-8.491-1.345c-3.414-1.046-6.789-0.714-10.155-0.112
		c-2.821,0.504-5.581,1.289-8.478,1.419c-1.419,0.063-2.82,0.513-4.229,0.782c-0.397,0.076-0.695,0.173-0.843,0.659
		c-0.516,1.697-1.249,2.23-2.655,1.558c-1.084-0.52-1.93-0.387-2.899,0.031c-0.979,0.423-1.976,0.806-3.005,1.222
		c1.199,1.361,1.206,1.505,0.158,2.215c-0.325,0.221-0.66,0.426-1,0.623c-0.893,0.519-0.974,1.175-0.347,1.959
		c0.399,0.499,0.81,0.99,1.2,1.497c0.522,0.678,0.645,1.388,0.164,2.362c-1.278-1.271-2.52-2.323-3.53-3.563
		c-0.959-1.176-2.775-0.955-3.53-2.371c-0.035-0.064-0.465,0.019-0.671,0.117c-1.412,0.671-2.794,1.644-4.138,2.13
		c-1.448,0.523-3.184,0.718-4.762,1.193c-0.373,0.112-0.729,0.334-1.05,0.566c-2.057,1.49-4.103,2.995-6.146,4.501
		c-0.439,0.324-1.136,0.61-0.971,1.239c0.546,2.086-1.401,2.466-2.333,3.508c-0.575,0.643-1.141,0.388-1.368-0.457
		c-0.113-0.421,0.356-0.91-0.229-1.359c-1.676,0.169-3.276,1.215-5.043,1.039c-1.43-0.142-2.664,0.371-3.447,1.294
		c-1.533,1.807-3.58,2.005-5.604,2.165c-1.351,0.107-2.456,0.493-3.53,1.247c-0.43,0.302-0.754,1.075-1.516,0.59
		c1.078-1.616,2.55-2.444,4.527-2.563c2.14-0.13,4.207-0.43,5.81-2.248c0.809-0.919,2.093-1.495,3.475-1.222
		c0.674,0.134,1.265-0.121,1.869-0.277c1.308-0.338,2.636-0.613,3.856-1.247c0.608-0.316,1.24-0.389,1.522,0.482
		c0.097,0.299-0.193,0.895,0.517,0.73c0.344-0.079,0.594-0.443,0.527-0.711c-0.431-1.718,0.748-2.426,1.9-3.165
		c1.471-0.944,2.836-2.018,4.17-3.152c0.895-0.762,1.947-1.515,3.054-1.816c3.055-0.835,5.964-2.006,8.832-3.312
		c0.546-0.248,1.164-0.468,1.516,0.087c0.82,1.292,2.151,1.501,3.506,1.867c-0.273-0.914,0.865-1.227,0.869-2.066
		c-0.818-0.536-2.216,0.301-2.632-1.384c3.027-1.045,6.077-2.111,9.14-3.14c0.389-0.131,0.768,0.127,1.081,0.393
		c0.231,0.119,0.457,0.43,0.729,0.143c0.281-0.297-0.081-0.479-0.203-0.699c0.151-0.915,0.979-1.007,1.616-1.186
		c1.382-0.387,2.797-0.659,4.206-0.937c0.924-0.182,2.189,0.316,2.721-0.478c0.524-0.782,0.453-1.97,0.624-2.982
		c0.066-0.393,0.079-0.795,0.119-1.192c0.674-6.75,1.29-13.506,2.037-20.247c0.939-8.487,1.984-16.963,2.995-25.442
		c0.048-0.401,0.126-0.789-0.09-1.152c-1.087-1.832-2.687-2.287-4.75-1.3c-0.873,0.417-1.737,0.786-2.726,0.82
		c-3.22,0.111-6.39-0.458-9.166-1.946c-5.838-3.129-11.444-6.695-16.391-11.137c-6.179-5.548-12.366-11.088-17.857-17.363
		c-7.789-8.903-15.396-17.941-22.063-27.733c-1.887-2.772-3.759-5.556-5.719-8.276c-0.9-1.25-2.022-2.341-2.303-4.595
		c-0.983,1.169-1.541,1.841-2.109,2.503c-0.338,0.393-0.611,0.827-0.061,1.201c1.867,1.268,2.616,3.385,3.921,5.078
		c0.391,0.508,0.759,1.044,0.719,1.731c-0.088,1.479,0.718,2.557,1.562,3.645c1.518,1.956,2.982,3.954,4.491,5.917
		c0.669,0.872,0.671,1.534-0.37,2.133c-0.861,0.496-1.648,1.122-2.365,1.619c1.306,4.009,4.308,6.523,6.656,9.53
		c3.497,4.479,8.279,7.459,12.498,11.084c1.388,1.192,2.555,2.224,3.091,4.015c0.865,2.889,2.205,3.312,4.689,1.622
		c0.585-0.397,1.12-0.667,1.702-0.1c1.638,1.599,3.663,2.89,4.226,5.351c0.179,0.781,0.423,1.564,1.337,1.832
		c2.615,0.766,3.72,2.883,4.453,5.211c0.212,0.671,0.487,1.067,1.008,1.466c2.129,1.637,2.301,2.254,1.007,4.61
		c-0.846,1.54-1.828,2.954-1.229,4.874c0.143,0.457-0.074,1.169-0.369,1.596c-1.507,2.177-1.938,4.725-2.453,7.204
		c-0.963,4.637-3.257,8.632-5.676,12.588c-0.242,0.395-0.45,0.857-1.001,0.938c-0.612-0.639,0.136-0.951,0.357-1.353
		c1.962-3.552,4.243-6.918,5.186-10.989c0.694-3.004,1.128-6.138,2.909-8.807c0.163-0.244,0.223-0.626,0.183-0.924
		c-0.278-2.066,0.265-3.839,1.411-5.61c1.118-1.729,0.867-2.307-0.902-3.526c-0.72-0.496-0.951-1.062-1.198-1.879
		c-0.605-2.002-1.56-3.888-3.785-4.594c-1.027-0.326-1.659-0.956-1.848-1.98c-0.411-2.229-2.115-3.483-3.593-4.925
		c-0.57-0.557-0.959-0.521-1.615-0.04c-2.274,1.665-4.413,0.951-5.376-1.709c-0.217-0.599-0.36-1.227-0.6-1.816
		c-0.592-1.458-2.724-3.033-4.067-2.78c-1.287,0.242-2.481-0.012-3.699-0.247c-0.496,1.446-0.587,2.876-0.641,4.317
		c-0.022,0.6,0.248,1.305-0.485,1.711l0.047,0.028c-0.51-2.286-0.02-4.517,0.368-6.754c1.389-0.354,2.783,0.887,4.264-0.077
		c-0.302-0.892-1.157-1.26-1.84-1.703c-5.266-3.408-8.985-8.378-13.064-12.966c-1.141-1.283-1.776-3.016-2.631-4.549
		c-0.38-0.681-0.238-1.136,0.505-1.538c0.902-0.487,1.83-0.982,2.629-1.898c-1.108-1.904-2.544-3.594-3.908-5.333
		c-1.281-1.632-2.348-3.25-2.788-5.44c-0.411-2.049-2.032-3.748-3.397-5.413c-0.786-0.959-1.353,0.416-2.286,0.269
		c1.272-4.427,5.138-6.264,8.264-8.819c0.691,0.783-0.025,1.07-0.336,1.448c-0.354,0.432-0.761,0.821-1.153,1.22
		c-2.14,2.179-2.158,2.192-0.298,4.475c2.279,2.795,4.113,5.897,6.147,8.86c8.257,12.024,17.545,23.22,27.665,33.687
		c5.647,5.841,11.606,11.467,18.287,16.133c3.884,2.712,7.728,5.732,12.396,7.074c2.301,0.661,4.717,1.076,7.162,0.998
		c0.487-0.016,0.925-0.15,1.374-0.353c2.812-1.263,5.863-1.515,8.852-2.019c0.385-0.064,0.81-0.024,1.193,0.065
		c2.146,0.5,4.253,1.134,6.447,1.461c2.562,0.381,4.679,1.896,6.911,3.097c2.236,1.203,4.459,2.38,7.104,2.579
		c1.23,0.092,2.451,0.663,3.619,1.151c1.713,0.717,3.556,0.74,5.324,1.149c0.453,0.105,1.017,0.168,1.419-0.006
		c3.04-1.312,6.305-1.406,9.504-1.864c0.392-0.056,0.82-0.097,1.152-0.286c1.788-1.016,3.619-1.668,5.687-0.936
		c0.373,0.132,0.761-0.105,0.835-0.303c0.594-1.595,1.151-0.774,2.013-0.163c1.539,1.093,3.031,2.011,5.277,1.208
		c2.475-0.883,4.98,0.243,7.376,1.172c1.755,0.681,3.366,1.817,5.432,1.618c0.508-0.049,1.118,0.551,1.62,0.932
		c1.793,1.363,3.771,2.442,5.807,3.33c3.501,1.527,7.175,2.565,10.995,2.99c0.238,0.027,0.488,0.003,0.716,0.064
		c4.656,1.257,8.513-0.759,12.188-3.145c3.352-2.177,6.96-3.879,10.358-5.959c1.543-0.945,3.099-1.842,4.577-2.912
		c2.08-1.505,4.289-2.56,7.025-0.902c1.413,0.855,3.135,1.545,4.935,1.304c0.372,1.066,0.159,2.014,0.05,2.952
		c-0.909,7.859-1.8,15.721-2.758,23.573c-0.842,6.899-1.807,13.783-2.639,20.684c-0.908,7.537-1.718,15.086-2.586,22.628
		c-0.904,7.859-1.79,15.721-2.75,23.573c-1.311,10.707-2.682,21.406-4.032,32.108c-0.24,1.902-0.544,3.798-0.747,5.704
		c-0.109,1.03-0.549,1.325-1.571,1.199c-4.203-0.521-8.416-0.967-12.624-1.451c-7.7-0.888-15.397-1.803-23.101-2.669
		c-6.909-0.777-13.823-1.504-20.735-2.252c-0.318-0.034-0.641-0.046-0.954-0.102c-1.128-0.202-1.566,0.286-1.669,1.404
		c-0.247,2.705-0.6,5.401-0.896,8.103c-1.1,10.01-2.209,20.019-3.287,30.03c-1.035,9.614-2.02,19.234-3.059,28.849
		c-1.03,9.535-2.178,19.058-3.134,28.6c-1.149,11.452-2.526,22.879-3.61,34.339c-1.114,11.774-2.511,23.521-3.805,35.279
		c-0.203,1.847-0.365,1.956-2.328,1.469c-4.725-1.173-9.43-2.423-14.154-3.598c-22.135-5.502-44.088-11.694-66.149-17.475
		c-21.307-5.583-42.521-11.517-63.83-17.088c-35.965-9.404-71.759-19.439-107.656-29.093c-25.044-6.734-49.992-13.819-74.995-20.707
		c-24.458-6.738-48.755-14.033-73.122-21.087c-14.563-4.216-29.238-8.046-43.855-12.078c-12.384-3.417-24.746-6.913-37.138-10.304
		c-13.778-3.769-27.613-7.342-41.231-11.663c-5.094-1.617-10.172-3.288-15.303-4.783c-1.136-0.33-1.744-0.943-2.224-1.933
		c-4.881-10.056-10.411-19.775-15.374-29.793c-8.717-17.595-17.556-35.129-26.2-52.761c-8.5-17.339-17.169-34.595-25.688-51.925
		c-6.304-12.822-12.488-25.703-18.719-38.561c-0.907-1.872-0.9-1.909,1.024-2.729c10.573-4.5,21.181-8.92,31.721-13.497
		c9.004-3.91,17.938-7.983,26.892-12.007c2.212-0.994,2.244-0.521,1.098-3.05c-5.102-11.259-10.313-22.469-15.131-33.854
		c-0.426-1.008-1.045-1.936-0.74-3.169c0.113-0.456-0.289-1.052-0.491-1.571c-2.807-7.216-5.448-14.54-9.098-21.349
		c-2.209-4.123-4.166-8.338-6.197-12.532c-0.139-0.287-0.252-0.587-0.381-0.879c-0.939-2.113-0.939-2.113,1.204-3.018
		c43.898-18.522,87.5-37.733,131.343-56.38c0.444-0.189,0.907-0.315,1.275-0.792c-1.564-3.7-3.138-7.449-4.734-11.188
		c-1.69-3.963-3.333-7.948-5.145-11.855c-0.585-1.264,0.059-1.963,0.639-2.79c6.847-9.744,13.719-19.47,20.553-29.222
		c7.339-10.472,14.646-20.967,21.966-31.452c0.183-0.262,0.351-0.535,0.54-0.792c1.046-1.425,1.07-1.458,2.599-0.427
		c10.072,6.791,20.126,13.606,30.198,20.396c12.258,8.263,24.521,16.52,36.793,24.76c14.787,9.93,29.76,19.579,44.592,29.439
		c12.511,8.318,25.152,16.431,37.74,24.627c24.912,16.221,49.618,32.751,74.395,49.176c1.782,1.182,2.267,2.6,2.435,4.559
		c0.343,3.983-1.227,7.305-3.208,10.528c-0.782,1.272-1.187,2.806-2.575,3.678c-0.404,0.253-0.351,0.887-0.565,1.258
		c-2.135,3.687-3.046,8.121-6.299,11.096c-2.019,1.846-4.348,3.413-7.291,3.561c-0.405,0.021-0.84,0.14-1.151-0.12
		c-1.104-0.92-1.612-0.237-2.216,0.656c-7.795,11.514-15.291,23.23-23.363,34.556c-0.138,0.193-0.221,0.425-0.337,0.654
		c0.333,0.798,1.123,1.093,1.77,1.519c7.806,5.144,15.697,10.163,23.4,15.456c2.712,1.863,5.497,3.728,7.788,6.182
		c-0.804-0.861,1.584,0.564,1.86,1.903 M557.034,372.393c-0.361,0.667-1.671,0.028-1.75,1.399c0.854-0.178,1.602-0.216,2.104-0.928
		c0.25-0.176,0.506-0.38,0.188-0.671C557.511,372.134,557.221,372.319,557.034,372.393z M453.807,325.962
		c0.253,0.32,0.108,0.873,0.673,1.083c0.137-0.545,0.127-1.047-0.111-1.542c-0.225-0.502-0.45-1.004-0.669-1.492
		c2.412-1.908,5.094-1.629,7.775-1.115c1.829,0.351,3.566,0.379,5.259-0.561c0.85-0.473,1.771-0.726,2.708-0.052
		c0.331,0.238,0.766,0.164,1.142-0.039c-0.592-2.048,0.042-9.764,1.429-20.375c0.895-6.852,1.508-13.741,2.243-20.574
		c-2.091-0.765-4.02-0.826-5.924-0.669c-3.853,0.316-6.595-1.511-8.83-4.358c-1.282-1.633-2.571-3.279-3.651-5.045
		c-0.663-1.083-2.165-1.909-1.478-3.606c0.074-0.185-0.271-0.545-0.432-0.818c-1.597-2.725-2.293-5.573-1.245-8.682
		c0.406-1.207,0.661-2.474,1.17-3.633c0.493-1.122,0.193-1.745-0.764-2.387c-1.633-1.096-3.44-1.964-4.866-3.783
		c-1.264,2.522-2.703,4.731-3.434,7.251c-0.727,2.505-0.021,4.758,1.876,6.558c1.042,0.989,2.188,1.869,3.291,2.794
		c0.87,0.73,1.586,1.578,2.021,2.639c0.94,2.293,0.586,2.859-1.833,2.937c-0.24,0.008-0.481,0.021-0.72,0
		c-1.056-0.097-1.534,0.249-1.653,1.432c-0.286,2.856-0.922,5.684-1.113,8.542c-0.118,1.765-0.984,2.436-2.435,3.053
		c-8.888,3.785-17.744,7.643-26.606,11.487c-0.999,0.433-2.057,0.783-2.875,1.541c0.458,0.793,0.907,1.431,1.414,2.056
		c1.058,1.304,0.858,3.405-0.379,3.817c-1.793,0.599-2.365,1.717-2.062,3.467c0.12,0.691-0.033,1.234-0.765,1.552
		c-1.929,0.836-3.104,2.615-4.713,3.857c-0.7,0.541-1.007,1.201-0.387,2.264c0.61,1.043,0.912,2.441,0.014,3.604
		c-1.069,1.385-2.742,1.848-4.258,2.501c-1.008,0.436-1.721-0.512-2.579-0.799c-0.103-0.034-0.265,0.108-0.639,0.278
		c2.369,4.91,4.344,9.99,6.315,15.265c1.678-1.07,3.184-1.966,4.619-2.964c1.243-0.865,2.426-1.377,3.682,0.08
		c0.218-0.796,0.069-1.493,0.884-1.766c1.57-0.523,3.052-1.788,4.677-1.479c0.903,0.172,1.45,0.005,2.157-0.264
		c0.594-0.226,1.207-0.438,1.831-0.537c3.592-0.576,7.153-1.474,10.793-1.564c1.448-0.036,2.762-0.314,4.124-0.655
		c1.524-0.382,3.083-1.004,4.639-0.021c0.168,0.105,0.423,0.198,0.63-0.068c1.122-1.445,1.945-0.551,2.938,0.261
		c0.458,0.374,1.324,1.006,1.716-0.499c0.299-1.147,2.218-1.22,2.977-0.229C452.787,325.23,453.323,325.554,453.807,325.962z
		 M635.437,289.473c0.375,0.17,0.718,0.368,0.681,0.861c-0.067,0.877-0.11,1.757-0.213,2.629
		c-0.754,6.422-1.549,12.839-2.275,19.264c-0.763,6.744-1.537,13.489-2.156,20.247c-0.274,2.99-0.829,5.974-0.727,9.06
		c1.854,0.192,3.411-0.526,5.027-0.854c3.941-0.801,7.844-1.086,11.793,0.1c1.897,0.57,3.897,0.911,5.875,1.088
		c6.984,0.624,13.985,0.96,21.002,0.939c5.026-0.016,10.054,0.051,15.08,0.105c1.042,0.012,2.07-0.021,3.103-0.185
		c4.161-0.655,8.313-1.39,12.493-1.895c3.459-0.418,6.903-0.973,10.454-0.358c2.387,0.413,4.881,0.228,7.335,0.199
		c1.869-0.021,3.607-0.683,5.422-0.68c4.539,0.009,9.029,0.584,13.48,1.466c0.482,0.095,0.89,0.259,1.254,0.622
		c1.541,1.537,3.701,1.832,5.584,2.675c0.625,0.279,1.434,0.283,2.095-0.115c1.721-1.036,3.633-1.126,5.554-1.146
		c2.456-0.025,3.229-0.767,3.519-3.142c1.005-8.248,2.081-16.488,3.089-24.736c0.756-6.187,1.456-12.38,2.161-18.572
		c0.116-1.023,0.489-2.231,0.099-3.044c-0.47-0.979-1.953-0.875-2.948-1.354c-0.718-0.346-1.465-0.632-2.167-1.006
		c-1.147-0.611-2.262-0.605-3.435-0.054c-0.872,0.41-1.701,0.865-2.479,1.438c-1.604,1.182-3.348,2.132-5.065,3.138
		c-2.681,1.57-5.681,2.611-8.109,4.56c-2.8,2.246-6.237,3.091-9.339,4.661c-0.52,0.263-1.087,0.17-1.646,0.061
		c-1.097-0.213-2.19-0.471-3.298-0.584c-6.562-0.672-12.589-2.758-17.952-6.655c-0.32-0.233-0.707-0.585-1.039-0.56
		c-2.217,0.166-3.952-1.145-5.879-1.841c-2.578-0.932-5.128-1.712-7.889-0.72c-0.845,0.303-1.738,0.108-2.547-0.333
		c-0.626-0.342-1.258-0.674-1.716-0.919c-1.206,0.28-0.302,1.791-1.413,2.033c-0.769-0.375-0.027-1.556-1.025-1.717
		c-1.449-0.234-2.789-0.879-4.355,0.141c-1.362,0.888-3.076,1.169-4.808,1.249c-1.881,0.087-3.87,0.253-5.583,0.949
		c-2.025,0.823-3.881,0.604-5.832,0.169c-1.311-0.292-2.612-0.594-3.903-0.995c-1.349-0.419-2.729-0.788-4.144-1.057
		c-2.57-0.487-5.103-1.467-7.2-3.002c-1.889-1.383-3.958-2.069-6.103-2.584c-1.379-0.331-2.777-0.513-4.164-0.933
		c-1.628-0.493-3.432-0.644-5.113,0.145c-0.464,0.162-1.202-0.216-1.334,0.583C634.595,289.314,635.001,289.459,635.437,289.473z
		 M348.4,328.553c-2.007,0.521-3.523,1.854-5.343,2.354c-2.785,0.766-5.562,1.422-7.617,3.673c-0.19,0.209-0.59,0.215-0.875,0.352
		c-4.169,2.019-8.25,4.152-11.946,7.016c-2.579,1.997-5.478,3.543-8.661,4.473c-0.526,0.154-0.967,0.287-1.183-0.294
		c-0.753-2.035-2.271-3.806-1.942-6.223c0.126-0.929-0.17-2.023-1.118-2.483c-1.165-0.565-1.46-1.604-1.891-2.631
		c-2.471-5.889-4.955-11.771-7.447-17.651c-0.212-0.502-0.372-1.05-0.945-1.327c-2.247-1.088-4.072-2.799-6.125-4.174
		c-2.828-1.896-5.92-3.327-9.307-3.457c-3.279-0.126-6.539-0.351-9.796-0.688c-3.178-0.328-6.34-0.776-9.45-1.514
		c-0.751-0.178-1.722-0.131-2.148-0.903c-0.662-1.197-1.405-0.97-2.339-0.41c-0.949,0.567-1.913,1.244-2.771-0.264
		c-0.215-0.377-0.976-0.491-1.511-0.628c-4.796-1.22-9.578-2.504-14.403-3.596c-4.734-1.072-9.638-1.448-14.109-3.566
		c-0.279-0.132-0.628-0.111-0.938-0.188c-6.583-1.628-13.269-2.839-19.751-4.875c-2.292-0.719-4.646-1.092-7.033-1.389
		c-3.354-0.418-6.708-0.263-10.059-0.242c-2.653,0.017-5.048-0.631-7.252-2.072c-0.803-0.525-1.64-1.002-2.408-1.573
		c-1.896-1.407-4.022-2.209-6.307-2.765c-8.061-1.961-16.098-4.02-24.152-6.005c-6.122-1.509-12.22-3.15-18.397-4.389
		c-6.179-1.239-12.44-2.075-18.672-3.044c-6.01-0.934-11.914-2.001-17.193-5.439c-3.108-2.024-6.792-2.161-10.447-1.457
		c-3.813,0.735-7.607,0.661-11.412-0.181c-5.161-1.142-10.109-2.971-15.089-4.667c-2.212-0.754-4.085-0.754-6.152,0.278
		c-2.604,1.299-5.315,2.386-8.038,3.59c0.284,0.667,0.451,1.111,0.657,1.536c6.446,13.286,12.85,26.592,19.358,39.848
		c6.788,13.824,13.713,27.579,20.512,41.397c9.972,20.266,20.029,40.488,30.098,60.705c5.125,10.292,10.782,20.305,15.811,30.643
		c0.406,0.834,0.897,1.414,1.854,1.687c5.14,1.466,10.208,3.163,15.304,4.771c13.698,4.323,27.599,7.944,41.458,11.711
		c12.55,3.41,25.061,6.962,37.597,10.424c14.23,3.93,28.516,7.666,42.694,11.775c24.585,7.124,49.108,14.463,73.78,21.289
		c14.689,4.064,29.354,8.217,44.045,12.271c8.846,2.441,17.722,4.773,26.586,7.147c1.855,0.496,1.875,0.474,2.092-1.349
		c0.17-1.427,0.329-2.854,0.498-4.281c1.023-8.644,2.008-17.291,3.083-25.929c1.331-10.692,2.752-21.374,4.104-32.064
		c1.203-9.505,2.354-19.017,3.547-28.522c1.573-12.516,3.15-25.03,4.771-37.539c0.179-1.38,0.188-2.661-0.36-3.967
		c-0.395-0.94-0.845-2.003,0.736-2.452c0.565-0.161,0.422-0.797,0.479-1.244c0.461-3.562,0.911-7.126,1.35-10.691
		c0.271-2.194-0.022-2.504-2.226-2.413c-0.318,0.013-0.636,0.07-0.954,0.098c-2.95,0.25-3.064,0.142-4.022-2.782
		c-0.947-2.892-1.488-5.878-2.152-8.835c-0.165-0.734-0.247-1.404-1.261-1.379c-2.479,0.062-4.938-0.5-7.42-0.293
		c-4.149,0.347-8.306,0.268-12.461,0.249c-0.556-0.002-1.117-0.068-1.667-0.155c-0.645-0.102-1.076-0.431-0.731-1.143
		c1.347-2.777,0.906-5.584,0.276-8.438c-0.953-4.322-0.188-6.142,3.512-8.678c0.698-0.479,0.887-0.89,0.551-1.762
		c-1.81-4.692-3.593-9.393-5.81-13.915c-0.214-0.437-0.346-1.046-0.891-0.976c-1.693,0.218-3.632-1.054-5.076,0.814
		c-0.163,0.211-0.57,0.237-0.868,0.337c-2.138,0.713-3.753,2.067-4.541,4.172c-0.486,1.299-1.206,2.155-2.474,2.714
		c-0.692,0.306-1.644,0.648-1.799,1.461c-0.287,1.492-1.388,2.005-2.501,2.662c-0.812,0.479-1.501,1.172-2.214,1.806
		c-1.033,0.917-2.09,1.683-3.603,1.478c-0.883-0.119-1.775-0.057-2.327,0.847c-0.483,0.791-1.224,0.705-1.893,0.41
		c-0.653-0.288-1.211-0.568-2.006-0.547c-1.874,0.051-3.718-0.19-4.38-2.44c-0.025-0.087-0.259-0.112-0.454-0.188
		c-3.331,2.273-6.702,4.549-10.04,6.872c-0.882,0.614-1.421,0.548-1.809-0.489c-0.251-0.673-0.57-1.318-0.864-1.975
		C350.886,334.107,349.649,331.346,348.4,328.553z M203.249,88.122c-0.038,1.224,0.319,1.853,0.599,2.504
		c1.039,2.42,2.081,4.839,3.115,7.261c0.679,1.59,0.672,1.588-0.853,2.242c-17.089,7.329-34.182,14.652-51.268,21.991
		c-19.652,8.441-39.296,16.901-58.949,25.341c-7.186,3.086-14.387,6.138-21.578,9.212c-1.519,0.649-1.514,0.664-0.864,2.223
		c0.123,0.294,0.257,0.584,0.391,0.874c1.879,4.098,3.878,8.123,6.002,12.111c3.369,6.327,5.774,13.143,8.562,19.762
		c0.996,2.363,1.09,4.903,2.126,7.223c4.001,8.953,7.735,18.026,12.065,26.833c1.231,2.505,2.292,5.094,3.406,7.656
		c0.653,1.501,0.63,1.51-0.924,2.26c-0.216,0.104-0.422,0.229-0.642,0.327c-9.035,4.035-18.05,8.118-27.116,12.084
		c-5.995,2.623-12.065,5.072-18.095,7.617c-0.76,0.321-1.666,0.441-2.226,1.309c0.362,0.185,0.627,0.37,0.922,0.465
		c4.1,1.325,8.196,2.662,12.309,3.947c4.722,1.475,9.497,1.88,14.43,1.049c4.353-0.734,8.614-0.274,12.461,2.213
		c0.736,0.476,1.539,0.849,2.292,1.299c1.736,1.039,3.625,1.679,5.596,2.036c4.007,0.725,8.032,1.348,12.038,2.073
		c5.577,1.008,11.249,1.498,16.762,2.833c12.794,3.102,25.554,6.344,38.349,9.441c3.294,0.797,6.463,1.738,9.179,3.869
		c2.959,2.322,6.318,3.186,10.089,3.008c4.392-0.207,8.805-0.137,13.112,0.95c3.016,0.761,5.999,1.653,9.002,2.462
		c6.308,1.7,12.878,2.413,18.941,5.042c0.429,0.186,0.934,0.203,1.407,0.277c7.507,1.164,14.834,3.11,22.156,5.079
		c0.697,0.188,1.539,0.204,1.977,0.759c0.71,0.898,1.345,0.567,2.046,0.14c1.154-0.704,2.259-1.37,3.011,0.505
		c0.18,0.449,0.742,0.54,1.222,0.656c5.767,1.4,11.657,2.193,17.546,2.289c4.812,0.078,8.878,1.554,12.691,4.212
		c1.638,1.143,3.2,2.42,4.935,3.388c0.779,0.435,1.226,0.907,1.542,1.657c2.543,6.031,5.098,12.058,7.637,18.09
		c0.277,0.657,0.382,1.426,1.1,1.781c1.405,0.696,1.862,1.938,1.872,3.361c0.007,1.009,0.415,1.921,0.542,2.906
		c0.342,2.64,1.235,3.037,3.708,2.137c0.67-0.244,1.308-0.586,1.945-0.913c2.28-1.17,4.291-2.741,6.389-4.193
		c3.085-2.136,6.55-3.654,9.777-5.546c3.03-1.776,5.981-3.501,9.44-4.347c1.512-0.369,2.887-1.332,4.296-2.078
		c0.767-0.407,1.164-0.177,1.476,0.562c0.559,1.322,1.132,2.642,1.754,3.936c1.021,2.127,1.743,4.401,3.097,6.568
		c3.467-2.526,7.125-4.522,10.25-7.275c0.863-0.761,1.466-0.724,1.684,0.374c0.361,1.819,1.867,2,3.183,2.294
		c0.978,0.219,2.062-0.128,3.018,0.47c0.143,0.089,0.519,0.024,0.638-0.106c1.093-1.197,2.543-1.226,3.975-1.191
		c0.644,0.016,1.2-0.239,1.479-0.629c1.02-1.429,2.542-2.107,3.977-2.934c0.347-0.2,0.739-0.4,0.797-0.836
		c0.224-1.705,1.632-2.25,2.876-2.917c0.743-0.398,1.459-0.86,1.569-1.688c0.224-1.684,1.427-2.51,2.551-3.533
		c1.026-0.933,2.284-1.324,3.382-2.026c1.327-0.849,2.509-1.607,4.117-0.849c0.261,0.123,0.669,0.166,0.917,0.05
		c1.744-0.823,3.344-0.435,4.993,0.348c0.79,0.375,3.213-0.8,3.726-1.723c0.535-0.964,0.618-2.058-0.186-2.896
		c-0.755-0.788-0.564-1.604-0.016-2.128c1.283-1.226,2.022-2.955,3.741-3.8c0.86-0.424,2.064-0.992,2.046-2.063
		c-0.04-2.353,0.932-3.774,3.262-4.314c-0.191-0.875-0.162-1.778-0.572-2.381c-0.652-0.958-1.904-1.938-1.562-2.945
		c0.346-1.02,1.97-1.154,3.012-1.718c0.35-0.189,0.729-0.323,1.096-0.481c8.646-3.74,17.283-7.502,25.95-11.193
		c1.242-0.529,1.876-1.154,1.98-2.585c0.198-2.704,0.624-5.392,0.991-8.082c0.337-2.459,0.358-2.443,2.787-2.524
		c0.604-0.02,1.257,0.19,1.809-0.231c-0.392-2.138-0.534-2.459-1.926-3.703c-0.954-0.853-1.974-1.63-2.937-2.472
		c-2.914-2.547-3.662-5.784-2.102-9.3c0.647-1.458,1.426-2.858,2.129-4.292c0.834-1.7,0.826-1.703-0.793-2.764
		c-6.95-4.555-13.904-9.106-20.85-13.668c-2.302-1.511-2.293-1.522-4.177,0.608c-0.211,0.239-0.457,0.448-0.685,0.673
		c-2.337,2.302-4.333,4.844-5.841,7.785c-1.744,3.399-4.712,5.288-8.296,6.34c-1.046,0.307-2.088,0.471-3.089,1.117
		c-1.805,1.167-2.273,0.865-3.189-1.115c-0.798-1.727-1.342-3.579-2.499-5.296c-3.461,1.519-6.887,3.006-10.298,4.525
		c-2.48,1.104-2.266,1.29-3.376-1.382c-3.672-8.833-8.199-17.296-11.19-26.432c-1.162-3.549-3.103-6.836-4.431-10.34
		c-1.072-2.831-2.674-4.985-5.473-6.242c-0.846-0.38-1.701-0.842-2.136-1.822c-2.268-5.105-4.813-10.094-6.59-15.402
		c-0.403-1.204-0.973-2.081-2.024-2.804c-25.355-17.443-50.755-34.82-75.879-52.597c-4.436-3.139-9.024-6.069-12.801-10.055
		c-0.758-0.8-1.726-1.422-2.659-2.033c-5.148-3.371-10.337-6.681-15.466-10.08c-1.979-1.312-4.017-2.205-6.441-2.275
		c-2.92-0.085-5.376-1.242-7.368-3.468c-1.383-1.545-3.001-2.878-4.448-4.371c-1.539-1.589-3.346-2.706-5.438-3.375
		c-2.291-0.731-4.434-1.768-6.565-2.882C211.146,90.38,207.251,89.508,203.249,88.122z M435.224,391.198
		c-2.841-0.111-2.872-0.114-3.07,1.471c-1.614,12.911-3.211,25.824-4.825,38.734c-1.179,9.425-2.374,18.848-3.564,28.271
		c-1.4,11.085-2.814,22.168-4.202,33.255c-0.922,7.364-1.787,14.735-2.72,22.098c-0.409,3.23-0.458,3.228,2.612,4.041
		c40.868,10.832,81.603,22.159,122.479,32.965c38.021,10.051,75.948,20.458,114.027,30.289c4.481,1.157,8.952,2.354,13.443,3.469
		c1.629,0.405,1.792,0.264,1.985-1.376c0.683-5.79,1.356-11.582,1.981-17.379c0.616-5.719,1.21-11.44,1.739-17.167
		c0.611-6.603,1.304-13.195,2.078-19.78c0.652-5.55,1.19-11.113,1.788-16.671c0.692-6.434,1.402-12.866,2.091-19.301
		c0.73-6.833,1.43-13.669,2.172-20.501c0.689-6.35,1.434-12.694,2.124-19.044c0.734-6.752,1.283-13.528,2.23-20.249
		c0.314-2.238-0.254-3.589-1.888-4.885c-0.912-0.724-1.932-0.674-2.925-0.799c-1.424-0.181-2.893-0.064-4.301-0.312
		c-9.98-1.754-19.966-3.483-29.919-5.383c-13.334-2.545-26.757-4.517-40.185-6.465c-7.028-1.021-14.089-1.871-21.066-3.17
		c-9.096-1.693-18.141-3.683-27.177-5.68c-8.516-1.883-17.109-3.121-25.805-3.709c-1.753-0.119-3.508-0.255-5.247-0.493
		c-5.376-0.738-10.739-1.576-16.119-2.288c-6.803-0.9-13.621-1.689-20.428-2.571c-8.073-1.045-16.14-2.146-24.211-3.207
		c-6.884-0.904-13.769-1.801-20.656-2.672C443.312,392.14,438.95,391.644,435.224,391.198z M385.206,247.542
		c0.778-0.04,1.452-0.502,2.169-0.812c2.858-1.233,5.699-2.508,8.556-3.747c1.882-0.817,1.9-0.808,2.761,1.109
		c0.622,1.383,1.173,2.798,1.816,4.172c0.592,1.265,0.941,1.436,1.945,0.627c0.678-0.546,1.377-0.759,2.15-0.885
		c4.225-0.687,7.338-2.917,9.349-6.688c1.203-2.256,2.472-4.436,4.462-6.146c1.016-0.874,1.808-2.013,2.678-3.05
		c0.245-0.292,0.758-0.649,0.541-0.983c-1.015-1.555,0.386-2.364,1.022-3.313c4.188-6.236,8.46-12.416,12.667-18.639
		c3.401-5.031,6.757-10.093,10.113-15.154c0.671-1.012,1.286-1.93,2.6-0.798c0.312,0.27,0.756,0.109,1.121,0.166
		c1.674,0.255,2.782-0.918,4.146-1.455c3.094-1.219,4.674-3.791,5.857-6.607c0.466-1.107,0.985-2.146,1.563-3.188
		c1.252-2.258,2.292-4.621,3.878-6.703c1.104-1.452,1.812-3.188,2.65-4.809c1.352-2.614,1.341-5.502,0.915-8.376
		c-0.146-0.986-0.906-1.438-1.646-1.927c-3.131-2.074-6.249-4.169-9.377-6.248c-19.568-13-39-26.21-58.74-38.945
		c-29.607-19.099-59.075-38.405-88.377-57.966c-21.069-14.064-42.004-28.328-63.002-42.5c-1.457-0.983-2.958-1.902-4.39-2.92
		c-0.755-0.538-1.259-0.519-1.729,0.309c-0.275,0.485-0.633,0.922-0.953,1.381c-6.999,10.028-13.984,20.064-21,30.08
		c-6.878,9.819-13.751,19.642-20.725,29.394c-0.995,1.391-1.027,2.463-0.349,3.911c1.184,2.528,2.32,5.091,3.25,7.72
		c0.624,1.764,1.682,2.622,3.437,3.186c3.336,1.072,6.8,1.868,9.918,3.502c2.556,1.34,5.152,2.529,7.881,3.453
		c1.774,0.6,3.27,1.647,4.598,2.956c1.652,1.628,3.355,3.206,4.964,4.875c1.683,1.746,3.619,2.822,6.094,2.911
		c2.954,0.106,5.543,1.182,7.987,2.866c4.012,2.766,8.12,5.398,12.239,8.004c2.918,1.846,5.683,3.849,8.065,6.372
		c1.208,1.28,2.654,2.303,4.1,3.311c17.179,11.978,34.341,23.981,51.541,35.929c10.043,6.977,20.148,13.866,30.225,20.794
		c0.854,0.587,1.738,1.121,2.062,2.226c1.557,5.311,4.179,10.179,6.34,15.24c0.5,1.172,1.217,2.02,2.334,2.593
		c0.638,0.327,1.201,0.814,1.854,1.097c1.584,0.687,2.392,1.938,3.019,3.488c2.24,5.538,4.744,10.954,6.847,16.566
		c2.852,7.613,6.488,14.931,9.784,22.378C384.61,246.735,384.748,247.201,385.206,247.542z M563.771,369.129
		c-1.045-0.179-1.326,0.626-1.854,0.611c-1.464-0.041-2.086,0.894-2.606,2.016c-0.707,1.523-2.099,2.322-3.426,3.166
		c-0.842,0.535-1.382,0.263-1.471-0.697c-0.094-1.008,0.019-1.782,1.273-2.193c1.265-0.415,1.883-1.959,1.532-3.13
		c-0.383-1.277-1.379-0.643-2.186-0.649c-1.17-0.01-3.036-1.786-3.044-2.878c-0.003-0.36-0.086-0.853,0.468-0.949
		c0.378-0.066,0.5,0.248,0.698,0.508c0.909,1.194,2.184,1.447,3.141,0.44c0.664-0.697,1.34-1.479,1.352-2.65
		c0.021-2.029-0.344-3.977-0.981-5.871c-0.293-0.872-0.245-2.155-1.812-2.018c-0.392,0.034-0.482-0.521-0.526-0.943
		c-0.224-2.13-0.302-4.271-0.921-6.357c-1.188-4.006-1.669-8.11-1.58-12.298c0.027-1.258-0.251-2.538-0.516-3.781
		c-0.314-1.479-1.024-2.172-2.515-2.01c-4.764,0.52-8.442-2.495-12.659-3.729c-2.401-0.703-4.121-2.679-6.312-3.811
		c-1.56-0.806-1.898-0.665-2.11,1.117c-1.029,8.639-2.042,17.278-3.029,25.921c-0.624,5.471-1.263,10.941-1.753,16.425
		c-0.169,1.895-0.713,1.749-2.141,1.555c-2.451-0.332-4.909-0.631-7.341-1.071c-1.25-0.227-1.653,0.078-1.814,1.373
		c-0.864,6.969-1.855,13.922-2.76,20.887c-0.329,2.53-0.275,2.537,2.336,3.053c0.156,0.03,0.31,0.104,0.466,0.109
		c1.123,0.034,1.505,0.478,1.278,1.678c-0.369,1.957-0.504,3.957-0.792,5.931c-0.149,1.025,0.247,1.449,1.246,1.564
		c2.139,0.247,4.271,0.555,6.405,0.851c4.03,0.559,8.045,1.383,12.094,1.625c5.429,0.326,10.802,1.043,16.189,1.682
		c3.092,0.367,6.146,0.945,9.184,1.629c1.541,0.347,1.626,0.229,1.826-1.266c0.159-1.186,0.276-2.379,0.461-3.561
		c0.123-0.785,0.033-1.379-0.793-1.76c-1.052-0.484-0.8-1.241-0.241-1.951c2.353-2.993,2.79-6.562,2.969-10.168
		c0.125-2.528,0.569-4.898,2.071-7.001c0.684-0.956,0.987-2.014,0.426-3.151c-0.818-1.659-0.724-3.402-0.524-5.164
		C563.594,371.202,563.672,370.188,563.771,369.129z M547.954,250.49c-1.747-0.896-3.819-0.487-5.744-0.903
		c-0.478-0.103-0.639,0.326-0.759,0.734c-0.157,0.533-0.503,0.535-0.861,0.196c-1.71-1.614-1.705-1.616-3.719-0.277
		c-0.397,0.265-0.787,0.536-1.303,0.204c-2.217-1.425-4.794-0.919-7.205-1.279c-0.926-0.138-1.73,0.078-2.443-0.97
		c-0.699-1.028-1.832-0.628-2.287,0.596c-0.137,0.371-0.266,0.758-0.311,1.147c-0.357,3.094-0.663,6.194-1.045,9.285
		c-0.543,4.396-0.678,8.862-2.198,13.108c-0.713-0.071-1.203-0.416-1.325-1.146c-0.156-0.923-0.799-1.069-1.58-1.098
		c-1.247-0.048-2.373-0.026-3.355-1.278c-0.823-1.049-2.29-0.294-2.485,1.111c-0.132,0.948-0.164,1.911-0.326,2.853
		c-0.09,0.517-0.472,0.767-1.063,0.717c-0.637-0.055-0.826-0.397-0.769-0.949c0.115-1.111,0.223-2.225,0.391-3.329
		c0.106-0.692-0.091-1.004-0.812-1.127c-1.533-0.264-1.824-0.115-2.111,1.382c-0.091,0.469-0.061,0.966-0.184,1.423
		c-0.221,0.815,0.453,2.348-0.992,2.221c-1.151-0.101-0.43-1.454-0.503-2.246c-0.088-0.952,0.676-2.058,0.145-2.799
		c-0.609-0.851-1.938-0.369-2.911-0.684c-0.211-0.068-0.468,0.01-0.862,0.028c-0.213,1.727-0.421,3.455-0.642,5.182
		c-0.061,0.468,0.006,1.159-0.269,1.357c-1.344,0.97-1.057,2.398-1.219,3.704c-0.405,3.247-0.832,6.491-1.188,9.744
		c-0.599,5.476-1.124,10.96-1.74,16.435c-0.12,1.066-0.001,1.865,1.002,2.429c0.489,0.274,0.818,0.743,0.961,1.322
		c0.578,2.36-0.935,5.385-3.211,6.364c-0.438,0.188-0.908,0.299-1.355,0.467c-0.37,0.139-0.727,0.31-1.095,0.469
		c0.331,0.476,0.605,0.671,0.937,0.645c1.023-0.084,2.071-0.401,3.058-0.261c0.889,0.127,1.708,0.817,2.568-0.035
		c2.193,0.456,4.449-0.027,6.646,0.463c2.398,0.535,4.814,0.993,7.216,1.514c1.873,0.406,3.764,0.632,5.666,0.864
		c4.773,0.582,9.509,1.677,13.513,4.384c2.729,1.844,5.56,3.121,8.789,4.067C543.256,301.143,546.236,275.936,547.954,250.49z
		 M481.335,396.253c2.145,0.143,2.162,0.145,2.376-1.471c1.456-11,3.006-21.99,4.32-33.008c0.974-8.163,1.456-16.382,2.466-24.546
		c0.756-6.101,1.366-12.22,2.112-18.322c0.381-3.112,0.431-3.123-2.701-2.401c-0.078,0.018-0.152,0.052-0.23,0.064
		c-3.852,0.642-7.313,2.742-11.403,2.697c-1.792-0.02-3.599,1.138-5.489,1.479c-0.59,0.106-1.068,0.448-1.293,1.22
		c-0.404,1.386-0.893,1.649-2.228,1.134c-0.922-0.355-1.788-0.48-2.475,0.112c-1.718,1.479-3.568,0.811-5.41,0.54
		c-0.472-0.069-0.936-0.196-1.399-0.311c-0.818-0.203-1.204,0.197-1.296,0.95c-0.126,1.03-0.19,2.069-0.328,3.098
		c-1.219,9.098-2.51,18.187-3.657,27.294c-1.097,8.71-2.027,17.441-3.075,26.159c-0.255,2.119-0.349,4.315-1.937,6.039
		c-0.571,0.62-0.506,1.512-0.624,2.282c-0.319,2.071,0.398,2.893,2.492,3.158c4.355,0.553,8.706,1.135,13.06,1.695
		C470.238,394.84,475.862,395.554,481.335,396.253z M510.939,400.055c0.771-1.533,0.596-3.175,0.854-4.735
		c0.508-3.061,0.512-3.156-2.576-3.636c-1.326-0.206-1.549-0.787-1.384-1.901c0.327-2.21,0.637-4.422,0.929-6.637
		c0.721-5.456,1.403-10.918,2.153-16.37c0.264-1.918,0.338-1.948,2.207-1.729c2.534,0.298,5.065,0.637,7.589,1.015
		c1.033,0.154,1.428-0.191,1.518-1.231c0.263-3.021,0.588-6.035,0.931-9.048c0.703-6.183,1.434-12.361,2.154-18.542
		c0.555-4.755,1.134-9.508,1.655-14.268c0.204-1.864,0.157-1.905-1.652-2.567c-1.949-0.712-3.936-1.351-6.025-1.44
		c-2.877-0.124-5.641-0.853-8.445-1.391c-3.499-0.673-6.971-1.623-10.595-1.41c-0.654,0.038-1.321-0.101-1.353,0.871
		c-0.019,0.558-0.012,1.22-0.828,1.167c-0.777-0.052-1.85,0.039-2.076-0.833c-0.291-1.124-1.03-1.176-1.769-1.01
		c-0.75,0.167-0.638,1.008-0.708,1.619c-0.391,3.408-0.735,6.822-1.152,10.228c-0.979,7.998-2.031,15.991-2.638,24.026
		c-0.685,9.078-2.13,18.059-3.222,27.085c-0.632,5.227-1.353,10.443-2.076,15.658c-0.157,1.138-0.028,1.692,1.354,1.845
		c4.279,0.472,8.535,1.159,12.807,1.716C502.702,399.072,506.82,399.551,510.939,400.055z M446.215,325.35
		c-0.824,1.557-0.823,1.554-2.146,0.836c-0.621-0.337-1.202-0.924-1.974-0.669c-1.51,0.5-3.417,0.089-4.386,1.892
		c-0.139,0.258-0.602,0.42-0.809,0.08c-0.655-1.075-1.631-0.695-2.565-0.7c-2.871-0.016-5.573,1.063-8.416,1.241
		c-1.354,0.084-2.708,0.371-3.783,1.302c-0.531,0.46-0.928,0.351-1.487,0.032c-0.603-0.344-3.955,0.69-4.328,1.208
		c-0.165,0.229-0.024,0.439-0.03,0.659c-0.042,1.836-0.285,2.024-1.778,0.99c-1.073-0.742-1.853-0.777-2.93,0.004
		c-2.066,1.499-4.225,2.878-6.393,4.229c-2.567,1.6-3.577,3.623-3.001,6.62c0.631,3.286,1.449,6.55-0.165,10.072
		c2.455,0,4.527,0,6.599,0c4.637,0.001,9.285-0.19,13.908,0.068c3.406,0.191,2.584-0.23,3.279,2.879
		c0.626,2.805,1.204,5.618,2.081,8.358c0.592,1.85,1.037,2.149,2.964,1.82c0.877-0.15,1.722-0.31,2.603-0.103
		c1.651,0.389,1.768,0.509,1.58,2.244c-0.376,3.492-0.706,6.993-1.227,10.465c-0.186,1.229,0.19,2.789-1.401,3.563
		c-0.406,0.197-0.1,0.722,0.036,1.081c0.609,1.621,0.607,3.241,0.252,4.938c-0.357,1.71-0.191,1.874,1.66,1.975
		c3.993,0.215,7.932,0.865,11.894,1.339c0.674,0.08,1.398,0.368,2.128-0.084c-0.135-1.592-0.526-3.368,0.428-4.653
		c2.227-2.995,1.902-6.494,2.396-9.843c0.093-0.631,0.136-1.269,0.213-1.901c0.854-6.972,1.681-13.947,2.571-20.914
		c1.052-8.233,2.195-16.455,3.216-24.692c0.257-2.081,0.984-4.154,0.521-6.353c-0.442,0.038-0.779,0.002-1.069,0.103
		c-1.518,0.521-1.718,0.772-1.298,2.344c0.238,0.89-0.064,1.571-0.402,2.276c-0.242,0.505-0.669,0.994-1.275,0.901
		c-0.72-0.111-0.794-0.754-0.612-1.319c0.483-1.512-0.992-1.843-1.622-2.635c-0.292-0.367-1.276-0.24-0.951,0.596
		c0.414,1.061-0.103,1.032-0.821,1.088C448.307,326.795,447.188,326.266,446.215,325.35z M470.971,320.423
		c3.018-0.803,5.769-1.551,8.531-2.256c0.688-0.175,1.487-0.043,2.106-0.331c3.925-1.824,8.099-2.915,12.187-4.26
		c0.528-0.174,1.06-0.379,1.538-0.657c1.463-0.852,1.814-2.249,2.059-3.831c0.19-1.237-0.125-1.969-1.117-2.6
		c-1.05-0.668-0.963-1.72-0.842-2.79c0.626-5.552,1.155-11.115,1.863-16.656c0.575-4.507,0.838-9.052,1.767-13.519
		c0.372-1.789,0.404-3.648,0.586-5.476c0.065-0.656-0.102-0.996-0.901-0.95c-0.775,0.045-1.451-0.013-1.451,1.05
		c-0.001,0.843-0.531,1.096-1.28,0.987c-0.71-0.103-1.412-0.26-2.122-0.363c-0.635-0.092-1.088-0.347-0.961-1.069
		c0.204-1.162-0.528-1.316-1.398-1.411c-1.19-0.13-2.374-0.316-3.563-0.461c-0.561-0.068-1.143-0.155-1.244,0.678
		c-0.081,0.669,0.11,1.03,0.847,1.126c1.164,0.151,1.727,1.073,1.573,2.046c-0.138,0.868-0.715,1.762-1.856,1.879
		c-0.312,0.032-0.621,0.205-0.926,0.189c-1.682-0.09-2.924,0.993-4.338,1.604c-0.839,0.363-1.681,0.743-0.442,1.783
		c0.575,0.483,0.944,1.368,0.409,2.157c-0.593,0.876-1.311,1.667-1.975,2.496c-1.642-0.709-1.599,1.323-2.623,1.604
		c-0.22,0.06-0.49,0.047-0.711-0.019c-1.299-0.395-1.702,0.258-1.818,1.421c-0.333,3.335-0.713,6.666-1.069,9.999
		c-0.587,5.474-1.184,10.946-1.749,16.421C471.672,312.858,471.345,316.507,470.971,320.423z M510.485,268.891
		c-0.141,1.206-0.916,2.349-0.413,3.858C510.745,271.378,510.668,270.139,510.485,268.891z M548.322,254.76c0,0.911,0,1.821,0,2.731
		C548.615,256.542,548.642,255.6,548.322,254.76z M547.964,261.585c0-1.012,0-1.745,0-2.478
		C547.867,259.881,547.607,260.654,547.964,261.585z M564.773,368.919c0.067-0.121,0.188-0.243,0.187-0.364
		c-0.001-0.124-0.122-0.247-0.19-0.37c-0.06,0.123-0.167,0.247-0.167,0.37C564.603,368.677,564.712,368.798,564.773,368.919z
		 M613.786,348.52c-0.12-0.395-0.356-0.302-0.548-0.219c-0.129,0.056-0.22,0.196-0.327,0.3c0.135,0.134,0.185,0.448,0.481,0.244
		C613.547,348.738,613.683,348.606,613.786,348.52z"/>
	<path fill-rule="evenodd" clip-rule="evenodd" fill="#646464" d="M558.804,257.592c0.592-0.068,1.069-0.403,1.354-0.864
		c0.835-1.354,1.628-0.869,2.689-0.21c2.996,1.858,5.606,4.296,8.809,5.837c0.354,1.182,0.139,2.388-0.003,3.551
		c-0.243,2.005-0.289,4.006-0.365,6.086c0.805-0.695-0.37-1.982,0.9-2.415l-0.047-0.028c0.042,1.035,0.226,2.078-0.068,3.098
		c-0.115,0.402-0.425,0.693-0.884,0.643c-0.546-0.06-0.949-0.403-0.808-0.952c0.664-2.569-0.006-5.238,0.642-7.808
		c0.334-1.329-0.023-1.886-1.29-2.389c-0.784-0.311-1.219-0.095-1.292,0.768c-0.089,1.035-0.165,2.072-0.282,3.104
		c-0.059,0.517,0.032,1.186-0.815,1.174c-0.218-0.63,0.474-1.488-0.485-1.932c-0.315-0.835,0.687-1.182,0.701-1.907
		c0.018-0.916,0.612-1.982-0.21-2.691c-0.79-0.682-1.493-1.669-2.806-1.683c-0.151,1.078-0.254,2.108-0.45,3.119
		c-0.194,1,0.279,2.219-0.881,3.051c-0.35-1.067-0.107-1.997,0.005-2.933c0.142-1.184,0.297-2.371,0.329-3.56
		c0.023-0.862-1.656-2.284-2.251-1.926c-0.805,0.484-1.497,1.158-2.221,1.77c-0.502,0.424-0.279,1.034-0.349,1.567
		c-0.198,1.535-0.396,3.07-0.593,4.605c-0.119-0.015-0.239-0.029-0.358-0.044c0-1.404,0-2.809,0-4.213l-0.028,0.062
		C558.514,259.664,557.737,258.29,558.804,257.592z"/>
	<path fill-rule="evenodd" clip-rule="evenodd" fill="#FFFFFF" d="M572.188,269.578c-1.271,0.433-0.096,1.72-0.9,2.415
		c0.076-2.08,0.122-4.082,0.365-6.086c0.142-1.163,0.357-2.369,0.003-3.551c0.3,0.156,0.6,0.312,0.9,0.469
		C572.169,265.061,571.679,267.292,572.188,269.578z"/>
	<path fill-rule="evenodd" clip-rule="evenodd" fill="#FFFFFF" d="M558.804,257.592c-1.066,0.698-0.29,2.072-1.057,2.88
		c0.053-0.971,0.104-1.942,0.156-2.913C558.203,257.57,558.504,257.581,558.804,257.592z"/>
	<path fill-rule="evenodd" clip-rule="evenodd" fill="#88E856" d="M348.4,328.553c1.25,2.793,2.486,5.555,3.72,8.317
		c0.293,0.656,0.613,1.302,0.864,1.975c0.388,1.037,0.927,1.104,1.809,0.489c3.338-2.323,6.709-4.599,10.04-6.872
		c0.195,0.076,0.429,0.102,0.454,0.188c0.662,2.25,2.506,2.491,4.38,2.44c0.795-0.021,1.353,0.259,2.006,0.547
		c0.669,0.295,1.41,0.381,1.893-0.41c0.552-0.903,1.444-0.966,2.327-0.847c1.513,0.205,2.57-0.561,3.603-1.478
		c0.712-0.634,1.402-1.327,2.214-1.806c1.113-0.657,2.215-1.17,2.501-2.662c0.156-0.812,1.107-1.155,1.799-1.461
		c1.268-0.559,1.987-1.415,2.474-2.714c0.788-2.104,2.403-3.459,4.541-4.172c0.298-0.1,0.706-0.126,0.868-0.337
		c1.444-1.868,3.383-0.597,5.076-0.814c0.545-0.07,0.677,0.539,0.891,0.976c2.217,4.522,4,9.223,5.81,13.915
		c0.336,0.872,0.147,1.283-0.551,1.762c-3.7,2.536-4.464,4.355-3.512,8.678c0.629,2.854,1.07,5.661-0.276,8.438
		c-0.345,0.712,0.086,1.041,0.731,1.143c0.55,0.087,1.111,0.153,1.667,0.155c4.156,0.019,8.312,0.098,12.461-0.249
		c2.482-0.207,4.942,0.354,7.42,0.293c1.014-0.025,1.096,0.645,1.261,1.379c0.664,2.957,1.205,5.943,2.152,8.835
		c0.958,2.924,1.072,3.032,4.022,2.782c0.318-0.027,0.636-0.085,0.954-0.098c2.203-0.091,2.496,0.219,2.226,2.413
		c-0.438,3.565-0.889,7.129-1.35,10.691c-0.058,0.447,0.086,1.083-0.479,1.244c-1.581,0.449-1.131,1.512-0.736,2.452
		c0.549,1.306,0.539,2.587,0.36,3.967c-1.62,12.509-3.197,25.023-4.771,37.539c-1.193,9.506-2.344,19.018-3.547,28.522
		c-1.353,10.69-2.774,21.372-4.104,32.064c-1.075,8.638-2.06,17.285-3.083,25.929c-0.169,1.427-0.328,2.854-0.498,4.281
		c-0.217,1.822-0.237,1.845-2.092,1.349c-8.864-2.374-17.741-4.706-26.586-7.147c-14.691-4.055-29.356-8.207-44.045-12.271
		c-24.672-6.826-49.195-14.165-73.78-21.289c-14.178-4.109-28.464-7.846-42.694-11.775c-12.536-3.462-25.047-7.014-37.597-10.424
		c-13.859-3.767-27.76-7.388-41.458-11.711c-5.096-1.607-10.164-3.305-15.304-4.771c-0.958-0.272-1.449-0.853-1.854-1.687
		c-5.028-10.338-10.685-20.351-15.811-30.643c-10.069-20.217-20.126-40.439-30.098-60.705
		c-6.799-13.818-13.725-27.573-20.512-41.397c-6.508-13.255-12.912-26.562-19.358-39.848c-0.206-0.425-0.374-0.87-0.657-1.536
		c2.723-1.205,5.434-2.291,8.038-3.59c2.067-1.032,3.94-1.032,6.152-0.278c4.98,1.696,9.928,3.525,15.089,4.667
		c3.805,0.842,7.598,0.916,11.412,0.181c3.656-0.704,7.339-0.567,10.447,1.457c5.28,3.438,11.183,4.505,17.193,5.439
		c6.232,0.969,12.493,1.805,18.672,3.044c6.177,1.239,12.275,2.88,18.397,4.389c8.055,1.985,16.092,4.044,24.152,6.005
		c2.284,0.556,4.411,1.358,6.307,2.765c0.769,0.57,1.605,1.048,2.408,1.573c2.204,1.44,4.599,2.088,7.252,2.072
		c3.351-0.021,6.705-0.177,10.059,0.242c2.387,0.297,4.742,0.67,7.033,1.389c6.483,2.036,13.168,3.247,19.751,4.875
		c0.31,0.077,0.659,0.056,0.938,0.188c4.472,2.118,9.375,2.494,14.109,3.566c4.825,1.092,9.607,2.376,14.403,3.596
		c0.535,0.137,1.296,0.251,1.511,0.628c0.859,1.508,1.823,0.831,2.771,0.264c0.934-0.56,1.677-0.787,2.339,0.41
		c0.427,0.772,1.397,0.726,2.148,0.903c3.11,0.737,6.272,1.186,9.45,1.514c3.258,0.337,6.517,0.562,9.796,0.688
		c3.387,0.13,6.479,1.562,9.307,3.457c2.053,1.375,3.878,3.086,6.125,4.174c0.573,0.277,0.732,0.825,0.945,1.327
		c2.492,5.88,4.976,11.763,7.447,17.651c0.431,1.027,0.726,2.065,1.891,2.631c0.947,0.46,1.244,1.555,1.118,2.483
		c-0.329,2.417,1.189,4.188,1.942,6.223c0.215,0.581,0.656,0.448,1.183,0.294c3.183-0.93,6.082-2.476,8.661-4.473
		c3.696-2.863,7.777-4.997,11.946-7.016c0.284-0.137,0.684-0.143,0.875-0.352c2.055-2.251,4.833-2.907,7.617-3.673
		C344.876,330.407,346.393,329.073,348.4,328.553z"/>
	<path fill-rule="evenodd" clip-rule="evenodd" fill="#89D31E" d="M203.249,88.122c4.002,1.387,7.897,2.258,11.432,4.106
		c2.131,1.114,4.274,2.151,6.565,2.882c2.093,0.668,3.899,1.785,5.438,3.375c1.446,1.493,3.064,2.826,4.448,4.371
		c1.992,2.226,4.448,3.383,7.368,3.468c2.424,0.07,4.462,0.963,6.441,2.275c5.129,3.399,10.318,6.709,15.466,10.08
		c0.933,0.611,1.9,1.233,2.659,2.033c3.777,3.985,8.365,6.916,12.801,10.055c25.124,17.777,50.524,35.154,75.879,52.597
		c1.052,0.723,1.622,1.6,2.024,2.804c1.777,5.309,4.323,10.297,6.59,15.402c0.435,0.98,1.29,1.442,2.136,1.822
		c2.799,1.257,4.401,3.411,5.473,6.242c1.328,3.504,3.269,6.791,4.431,10.34c2.991,9.135,7.518,17.599,11.19,26.432
		c1.111,2.672,0.896,2.486,3.376,1.382c3.411-1.519,6.837-3.006,10.298-4.525c1.157,1.717,1.701,3.569,2.499,5.296
		c0.916,1.979,1.384,2.281,3.189,1.115c1.001-0.646,2.043-0.81,3.089-1.117c3.583-1.053,6.552-2.941,8.296-6.34
		c1.509-2.941,3.504-5.482,5.841-7.785c0.228-0.225,0.473-0.434,0.685-0.673c1.884-2.13,1.875-2.12,4.177-0.608
		c6.945,4.562,13.899,9.113,20.85,13.668c1.619,1.061,1.627,1.063,0.793,2.764c-0.703,1.434-1.481,2.833-2.129,4.292
		c-1.561,3.516-0.812,6.753,2.102,9.3c0.963,0.842,1.982,1.62,2.937,2.472c1.392,1.244,1.534,1.565,1.926,3.703
		c-0.552,0.422-1.204,0.211-1.809,0.231c-2.429,0.081-2.45,0.065-2.787,2.524c-0.367,2.69-0.793,5.378-0.991,8.082
		c-0.104,1.431-0.738,2.057-1.98,2.585c-8.667,3.691-17.304,7.454-25.95,11.193c-0.367,0.158-0.746,0.292-1.096,0.481
		c-1.042,0.563-2.667,0.698-3.012,1.718c-0.341,1.007,0.911,1.987,1.562,2.945c0.411,0.603,0.381,1.506,0.572,2.381
		c-2.331,0.54-3.302,1.962-3.262,4.314c0.018,1.071-1.186,1.64-2.046,2.063c-1.719,0.845-2.458,2.574-3.741,3.8
		c-0.548,0.523-0.739,1.34,0.016,2.128c0.804,0.839,0.721,1.933,0.186,2.896c-0.512,0.923-2.936,2.098-3.726,1.723
		c-1.649-0.782-3.249-1.171-4.993-0.348c-0.247,0.116-0.655,0.073-0.917-0.05c-1.608-0.759-2.79,0-4.117,0.849
		c-1.098,0.702-2.356,1.094-3.382,2.026c-1.124,1.023-2.327,1.85-2.551,3.533c-0.11,0.827-0.826,1.289-1.569,1.688
		c-1.244,0.667-2.652,1.212-2.876,2.917c-0.058,0.436-0.45,0.636-0.797,0.836c-1.435,0.826-2.957,1.505-3.977,2.934
		c-0.278,0.39-0.835,0.645-1.479,0.629c-1.432-0.034-2.882-0.006-3.975,1.191c-0.119,0.131-0.495,0.195-0.638,0.106
		c-0.956-0.598-2.041-0.251-3.018-0.47c-1.315-0.294-2.821-0.475-3.183-2.294c-0.218-1.098-0.821-1.135-1.684-0.374
		c-3.125,2.753-6.783,4.749-10.25,7.275c-1.354-2.167-2.076-4.441-3.097-6.568c-0.622-1.294-1.195-2.613-1.754-3.936
		c-0.312-0.738-0.709-0.969-1.476-0.562c-1.409,0.746-2.784,1.709-4.296,2.078c-3.459,0.846-6.41,2.57-9.44,4.347
		c-3.227,1.892-6.691,3.41-9.777,5.546c-2.098,1.452-4.109,3.023-6.389,4.193c-0.637,0.327-1.274,0.669-1.945,0.913
		c-2.473,0.9-3.366,0.503-3.708-2.137c-0.127-0.985-0.536-1.897-0.542-2.906c-0.01-1.424-0.467-2.665-1.872-3.361
		c-0.718-0.355-0.823-1.124-1.1-1.781c-2.54-6.032-5.094-12.059-7.637-18.09c-0.316-0.75-0.763-1.223-1.542-1.657
		c-1.735-0.968-3.297-2.245-4.935-3.388c-3.813-2.658-7.879-4.134-12.691-4.212c-5.889-0.096-11.78-0.889-17.546-2.289
		c-0.48-0.116-1.042-0.207-1.222-0.656c-0.751-1.875-1.856-1.209-3.011-0.505c-0.701,0.428-1.336,0.759-2.046-0.14
		c-0.438-0.555-1.28-0.571-1.977-0.759c-7.322-1.969-14.649-3.915-22.156-5.079c-0.473-0.074-0.978-0.091-1.407-0.277
		c-6.063-2.629-12.634-3.341-18.941-5.042c-3.004-0.81-5.986-1.701-9.002-2.462c-4.307-1.087-8.72-1.157-13.112-0.95
		c-3.771,0.178-7.13-0.686-10.089-3.008c-2.715-2.131-5.884-3.072-9.179-3.869c-12.795-3.098-25.555-6.34-38.349-9.441
		c-5.513-1.336-11.185-1.825-16.762-2.833c-4.006-0.725-8.031-1.348-12.038-2.073c-1.971-0.356-3.859-0.997-5.596-2.036
		c-0.753-0.451-1.556-0.823-2.292-1.299c-3.847-2.487-8.108-2.947-12.461-2.213c-4.934,0.832-9.708,0.426-14.43-1.049
		c-4.113-1.285-8.209-2.623-12.309-3.947c-0.294-0.095-0.56-0.28-0.922-0.465c0.56-0.867,1.465-0.987,2.226-1.309
		c6.029-2.545,12.1-4.994,18.095-7.617c9.065-3.967,18.081-8.049,27.116-12.084c0.219-0.098,0.426-0.222,0.642-0.327
		c1.555-0.75,1.577-0.759,0.924-2.26c-1.114-2.562-2.174-5.151-3.406-7.656c-4.33-8.807-8.063-17.88-12.065-26.833
		c-1.037-2.319-1.131-4.86-2.126-7.223c-2.788-6.62-5.192-13.435-8.562-19.762c-2.124-3.989-4.123-8.014-6.002-12.111
		c-0.133-0.29-0.268-0.58-0.391-0.874c-0.649-1.559-0.654-1.574,0.864-2.223c7.191-3.074,14.392-6.125,21.578-9.212
		c19.652-8.44,39.296-16.9,58.949-25.341c17.086-7.338,34.178-14.662,51.268-21.991c1.525-0.654,1.532-0.651,0.853-2.242
		c-1.034-2.422-2.076-4.841-3.115-7.261C203.568,89.975,203.211,89.346,203.249,88.122z"/>
	<path fill-rule="evenodd" clip-rule="evenodd" fill="#DEF9AF" d="M435.224,391.198c3.727,0.445,8.088,0.941,12.442,1.491
		c6.888,0.871,13.772,1.768,20.656,2.672c8.071,1.061,16.138,2.162,24.211,3.207c6.807,0.882,13.625,1.671,20.428,2.571
		c5.38,0.712,10.743,1.55,16.119,2.288c1.739,0.238,3.494,0.374,5.247,0.493c8.695,0.588,17.289,1.826,25.805,3.709
		c9.036,1.997,18.081,3.986,27.177,5.68c6.978,1.299,14.038,2.149,21.066,3.17c13.428,1.948,26.851,3.92,40.185,6.465
		c9.953,1.899,19.938,3.629,29.919,5.383c1.408,0.247,2.877,0.131,4.301,0.312c0.993,0.125,2.013,0.075,2.925,0.799
		c1.634,1.296,2.202,2.646,1.888,4.885c-0.947,6.721-1.496,13.497-2.23,20.249c-0.69,6.35-1.435,12.694-2.124,19.044
		c-0.742,6.832-1.441,13.668-2.172,20.501c-0.688,6.435-1.398,12.867-2.091,19.301c-0.598,5.558-1.136,11.121-1.788,16.671
		c-0.774,6.585-1.467,13.178-2.078,19.78c-0.529,5.727-1.123,11.448-1.739,17.167c-0.625,5.797-1.299,11.589-1.981,17.379
		c-0.193,1.64-0.356,1.781-1.985,1.376c-4.491-1.115-8.962-2.312-13.443-3.469c-38.079-9.831-76.006-20.238-114.027-30.289
		c-40.876-10.806-81.61-22.133-122.479-32.965c-3.069-0.813-3.021-0.811-2.612-4.041c0.933-7.362,1.798-14.733,2.72-22.098
		c1.388-11.087,2.802-22.17,4.202-33.255c1.19-9.423,2.386-18.846,3.564-28.271c1.614-12.91,3.211-25.823,4.825-38.734
		C432.352,391.084,432.383,391.087,435.224,391.198z"/>
	<path fill-rule="evenodd" clip-rule="evenodd" fill="#D3E525" d="M385.206,247.542c-0.458-0.341-0.596-0.807-0.79-1.246
		c-3.295-7.447-6.932-14.765-9.784-22.378c-2.103-5.612-4.607-11.028-6.847-16.566c-0.627-1.55-1.435-2.801-3.019-3.488
		c-0.653-0.283-1.216-0.77-1.854-1.097c-1.118-0.573-1.834-1.421-2.334-2.593c-2.161-5.061-4.783-9.929-6.34-15.24
		c-0.324-1.104-1.208-1.639-2.062-2.226c-10.077-6.928-20.182-13.817-30.225-20.794c-17.2-11.948-34.361-23.952-51.541-35.929
		c-1.446-1.008-2.892-2.031-4.1-3.311c-2.382-2.523-5.147-4.526-8.065-6.372c-4.119-2.606-8.227-5.238-12.239-8.004
		c-2.444-1.684-5.034-2.76-7.987-2.866c-2.475-0.089-4.411-1.166-6.094-2.911c-1.609-1.669-3.312-3.248-4.964-4.875
		c-1.328-1.308-2.824-2.355-4.598-2.956c-2.729-0.923-5.325-2.113-7.881-3.453c-3.118-1.634-6.582-2.43-9.918-3.502
		c-1.755-0.564-2.813-1.422-3.437-3.186c-0.929-2.628-2.066-5.192-3.25-7.72c-0.678-1.447-0.646-2.52,0.349-3.911
		c6.973-9.751,13.846-19.575,20.725-29.394c7.016-10.016,14.001-20.052,21-30.08c0.32-0.459,0.678-0.896,0.953-1.381
		c0.47-0.828,0.973-0.847,1.729-0.309c1.431,1.019,2.933,1.938,4.39,2.92c20.998,14.172,41.933,28.436,63.002,42.5
		c29.302,19.561,58.77,38.867,88.377,57.966c19.74,12.734,39.171,25.945,58.74,38.945c3.128,2.078,6.246,4.173,9.377,6.248
		c0.739,0.49,1.499,0.941,1.646,1.927c0.426,2.874,0.437,5.762-0.915,8.376c-0.838,1.62-1.546,3.357-2.65,4.809
		c-1.586,2.083-2.626,4.445-3.878,6.703c-0.578,1.042-1.098,2.081-1.563,3.188c-1.184,2.816-2.764,5.388-5.857,6.607
		c-1.363,0.537-2.472,1.71-4.146,1.455c-0.365-0.056-0.809,0.104-1.121-0.166c-1.313-1.132-1.929-0.214-2.6,0.798
		c-3.356,5.062-6.712,10.123-10.113,15.154c-4.207,6.223-8.479,12.402-12.667,18.639c-0.637,0.949-2.037,1.758-1.022,3.313
		c0.217,0.334-0.296,0.692-0.541,0.983c-0.871,1.038-1.662,2.176-2.678,3.05c-1.99,1.71-3.259,3.891-4.462,6.146
		c-2.01,3.771-5.124,6-9.349,6.688c-0.772,0.125-1.472,0.339-2.15,0.885c-1.004,0.809-1.353,0.638-1.945-0.627
		c-0.643-1.374-1.194-2.789-1.816-4.172c-0.861-1.917-0.879-1.926-2.761-1.109c-2.856,1.239-5.697,2.514-8.556,3.747
		C386.658,247.04,385.984,247.502,385.206,247.542z"/>
	<path fill-rule="evenodd" clip-rule="evenodd" fill="#A00000" d="M566.859,367.501c0.762,0.485,1.086-0.288,1.516-0.59
		c1.074-0.754,2.18-1.14,3.53-1.247c2.024-0.16,4.071-0.358,5.604-2.165c0.783-0.923,2.018-1.436,3.447-1.294
		c1.767,0.176,3.367-0.87,5.043-1.039c0.586,0.449,0.116,0.938,0.229,1.359c0.228,0.845,0.793,1.1,1.368,0.457
		c0.932-1.042,2.879-1.422,2.333-3.508c-0.165-0.629,0.531-0.915,0.971-1.239c2.044-1.506,4.09-3.011,6.146-4.501
		c0.32-0.232,0.677-0.454,1.05-0.566c1.578-0.476,3.313-0.67,4.762-1.193c1.344-0.486,2.726-1.459,4.138-2.13
		c0.206-0.099,0.636-0.182,0.671-0.117c0.755,1.416,2.571,1.195,3.53,2.371c1.011,1.24,2.252,2.293,3.53,3.563
		c0.48-0.975,0.358-1.685-0.164-2.362c-0.391-0.507-0.801-0.998-1.2-1.497c-0.627-0.784-0.546-1.44,0.347-1.959
		c0.34-0.197,0.675-0.402,1-0.623c1.048-0.71,1.041-0.854-0.158-2.215c1.029-0.416,2.025-0.799,3.005-1.222
		c0.97-0.418,1.815-0.551,2.899-0.031c1.406,0.673,2.14,0.14,2.655-1.558c0.147-0.486,0.445-0.583,0.843-0.659
		c1.409-0.27,2.811-0.719,4.229-0.782c2.896-0.13,5.656-0.915,8.478-1.419c3.366-0.602,6.741-0.934,10.155,0.112
		c2.741,0.839,5.612,1.166,8.491,1.345c2.943,0.183,5.879,0.582,8.824,0.677c3.672,0.119,7.353-0.062,11.025,0.041
		c5.088,0.143,10.175-0.078,15.266,0.101c2.516,0.089,5.095-0.289,7.574-0.8c4.037-0.832,8.11-1.299,12.197-1.711
		c2.239-0.227,4.497-0.034,6.694,0.27c2.717,0.377,5.412,0.002,8.116,0.161c1.389,0.082,2.688-0.862,4.16-0.898
		c1.368-0.034,2.691,0.248,3.973,0.539c2.509,0.569,5.122,0.012,7.583,0.855c0.376,0.129,0.807,0.118,1.16,0.282
		c0.914,0.424,1.151,1.879,1.864,1.986c0.851,0.128,1.704-0.064,2.594,0.421c1.773,0.969,3.57,1.549,5.581,0.265
		c1.213-0.774,2.784-0.615,4.204-0.578c1.105,0.028,2.161,0.157,3.099-1.006c0.26,2.251-0.267,4.131-0.467,6.011
		c-0.959,9.053-2.032,18.095-3.112,27.135c-1.156,9.679-2.35,19.353-3.558,29.025c-0.712,5.707-1.525,11.402-2.194,17.114
		c-0.149,1.278-0.623,1.587-1.812,1.44c-3.566-0.442-7.143-0.804-10.714-1.209c-6.51-0.737-13.017-1.492-19.526-2.223
		c-8.019-0.899-16.044-1.743-24.058-2.685c-4.342-0.51-4.355-0.582-4.901,3.649c-0.256,1.98-0.396,3.977-0.624,5.961
		c-0.087,0.755,0.119,1.604-0.541,2.208c-0.189-0.02-0.422,0.022-0.484-0.062c-1.294-1.737-3.137-1.864-5.1-1.938
		c-5.609-0.212-11.063-1.537-16.559-2.525c-16.654-2.996-33.252-6.3-50.035-8.562c-10.282-1.386-20.554-2.91-30.771-4.702
		c-7.936-1.392-15.782-3.293-23.666-4.978c-0.457-0.099-0.894-0.294-1.374-0.456c0.208-1.897,0.371-3.727,0.626-5.542
		c0.107-0.771,0.173-1.433-0.668-1.807c-0.676-0.301-0.783-0.822-0.361-1.341c2.89-3.555,2.649-7.935,3.157-12.094
		c0.199-1.64,0.591-3.117,1.549-4.451c1.116-1.558,1.353-3.202,0.47-4.959c-0.902-1.796-0.227-3.601-0.012-5.405
		c0.072-0.609,0.603-0.658,0.963-0.938c0.843-0.654,1.641-1.358,1.445-2.6L566.859,367.501z"/>
	<path fill-rule="evenodd" clip-rule="evenodd" fill="#EF0A0A" d="M636.012,288.23c1.682-0.788,3.485-0.637,5.113-0.145
		c1.387,0.42,2.785,0.602,4.164,0.933c2.145,0.516,4.214,1.202,6.103,2.584c2.098,1.536,4.63,2.516,7.2,3.002
		c1.414,0.269,2.795,0.637,4.144,1.057c1.291,0.401,2.593,0.704,3.903,0.995c1.951,0.435,3.807,0.654,5.832-0.169
		c1.713-0.696,3.702-0.862,5.583-0.949c1.731-0.08,3.445-0.361,4.808-1.249c1.566-1.021,2.906-0.375,4.355-0.141
		c0.998,0.161,0.257,1.342,1.025,1.717c1.111-0.243,0.207-1.753,1.413-2.033c0.458,0.245,1.09,0.577,1.716,0.919
		c0.809,0.441,1.702,0.637,2.547,0.333c2.761-0.993,5.311-0.212,7.889,0.72c1.927,0.696,3.662,2.007,5.879,1.841
		c0.332-0.025,0.719,0.327,1.039,0.56c5.363,3.897,11.391,5.983,17.952,6.655c1.107,0.113,2.201,0.371,3.298,0.584
		c0.56,0.109,1.127,0.202,1.646-0.061c3.102-1.57,6.539-2.415,9.339-4.661c2.429-1.949,5.429-2.99,8.109-4.56
		c1.718-1.006,3.462-1.957,5.065-3.138c0.778-0.573,1.607-1.029,2.479-1.438c1.173-0.551,2.287-0.557,3.435,0.054
		c0.702,0.374,1.449,0.661,2.167,1.006c0.995,0.479,2.479,0.376,2.948,1.354c0.391,0.812,0.018,2.021-0.099,3.044
		c-0.705,6.192-1.405,12.386-2.161,18.572c-1.008,8.248-2.084,16.488-3.089,24.736c-0.289,2.375-1.062,3.116-3.519,3.142
		c-1.921,0.02-3.833,0.109-5.554,1.146c-0.661,0.398-1.47,0.395-2.095,0.115c-1.883-0.843-4.043-1.138-5.584-2.675
		c-0.364-0.363-0.771-0.527-1.254-0.622c-4.451-0.882-8.941-1.457-13.48-1.466c-1.814-0.003-3.553,0.658-5.422,0.68
		c-2.454,0.028-4.948,0.214-7.335-0.199c-3.551-0.614-6.995-0.06-10.454,0.358c-4.18,0.505-8.332,1.239-12.493,1.895
		c-1.032,0.163-2.061,0.196-3.103,0.185c-5.026-0.055-10.054-0.121-15.08-0.105c-7.017,0.021-14.018-0.315-21.002-0.939
		c-1.978-0.177-3.978-0.518-5.875-1.088c-3.949-1.186-7.852-0.9-11.793-0.1c-1.616,0.328-3.173,1.047-5.027,0.854
		c-0.103-3.086,0.452-6.069,0.727-9.06c0.619-6.758,1.394-13.503,2.156-20.247c0.727-6.425,1.521-12.842,2.275-19.264
		c0.103-0.873,0.146-1.752,0.213-2.629c0.037-0.493-0.306-0.691-0.68-0.862C635.63,289.057,635.82,288.644,636.012,288.23z"/>
	<path fill-rule="evenodd" clip-rule="evenodd" fill="#761FFF" d="M557.775,260.41c0,1.404,0,2.809,0,4.213
		c0.119,0.015,0.239,0.029,0.358,0.044c0.197-1.535,0.395-3.07,0.593-4.605c0.069-0.533-0.153-1.143,0.349-1.567
		c0.724-0.612,1.416-1.286,2.221-1.77c0.595-0.358,2.274,1.064,2.251,1.926c-0.032,1.189-0.188,2.376-0.329,3.56
		c-0.112,0.937-0.354,1.866-0.005,2.933c1.16-0.832,0.687-2.051,0.881-3.051c0.196-1.011,0.299-2.042,0.45-3.119
		c1.312,0.014,2.016,1.001,2.806,1.683c0.822,0.709,0.228,1.776,0.21,2.691c-0.015,0.725-1.017,1.072-0.701,1.907l0.046-0.029
		c-0.604-0.266-0.548,0.14-0.522,0.514l0.035-0.042c-1.577,1.265-1.749,2.898-1.246,4.741c0.549-1.249,1.194-2.396,2.211-3.294
		l-0.038,0.042c0.848,0.011,0.757-0.657,0.815-1.174c0.117-1.032,0.193-2.068,0.282-3.104c0.073-0.863,0.508-1.079,1.292-0.768
		c1.267,0.502,1.624,1.06,1.29,2.389c-0.647,2.57,0.022,5.239-0.642,7.808c-0.142,0.549,0.262,0.893,0.808,0.952
		c0.459,0.05,0.769-0.241,0.884-0.643c0.294-1.021,0.11-2.063,0.068-3.098c0.733-0.406,0.463-1.111,0.485-1.711
		c0.054-1.44,0.145-2.871,0.641-4.317c1.218,0.235,2.412,0.489,3.699,0.247c1.344-0.253,3.476,1.322,4.067,2.78
		c0.239,0.589,0.383,1.217,0.6,1.816c0.963,2.661,3.102,3.375,5.376,1.709c0.656-0.48,1.045-0.517,1.615,0.04
		c1.478,1.442,3.182,2.696,3.593,4.925c0.188,1.024,0.82,1.654,1.848,1.98c2.226,0.706,3.18,2.592,3.785,4.594
		c0.247,0.816,0.479,1.383,1.198,1.879c1.77,1.219,2.021,1.797,0.902,3.526c-1.146,1.771-1.689,3.544-1.411,5.61
		c0.04,0.298-0.02,0.681-0.183,0.924c-1.781,2.669-2.215,5.803-2.909,8.807c-0.942,4.071-3.224,7.438-5.186,10.989
		c-0.222,0.401-0.97,0.714-0.357,1.353l0.042-0.042c-3.521,0.742-7.109,4.604-7.719,8.309c-0.117,0.709-0.227,1.418-0.332,2.129
		c-0.301,2.024-1.287,3.671-3.09,4.6c-3.466,1.784-5.159,4.731-6.289,8.32c-1.638,5.209-2.68,10.518-3.194,15.927
		c-0.235,2.472-1.038,4.636-2.36,6.683c-1.299,2.009-2.685,3.993-3.019,6.45c-0.092,0.671-0.635,0.771-1.035,1.122
		c-1.374,1.208-3.934,0.467-4.206,3.022c-0.785-0.442-0.805-0.877-0.74-1.233c0.323-1.792-0.253-2.907-2.306-2.916
		c0.212-0.303,0.28-0.519,0.392-0.544c2.388-0.541,2.343-2.391,2.354-4.257c0.016-2.604-0.517-5.12-1.638-7.42
		c-1.075-2.206-1.847-4.473-2.449-6.834c-1.05-4.107-1.877-8.234-1.697-12.504c0.055-1.292-0.222-2.541-0.479-3.793
		c-0.506-2.467-1.211-3.104-3.712-3.103c-1.772,0.001-3.49-0.092-5.159-0.807c-1.108-0.475-1.534-1.068-1.402-2.35
		c0.636-6.193,1.133-12.402,1.732-18.6c0.522-5.401,1.142-10.793,1.671-16.194c0.865-8.818,1.494-17.666,2.645-26.446
		c0.396-3.022,1.134-6.037,1.449-9.101c0.115-1.113,0.254-2.225,0.312-3.34c0.052-0.981,0.437-1.487,1.479-1.364
		c1.823,0.216,3.651,0.393,5.473,0.624c0.866,0.11,1.201,0.651,1.092,1.524c-0.268,2.14-0.526,4.28-0.747,6.425
		c-0.144,1.392-0.212,2.792-0.336,4.481C557.812,262.456,556.857,261.138,557.775,260.41z M555.966,268.214
		c-0.049,0.438-0.138,0.889-0.139,1.34c-0.002,0.462,0.313,0.682,0.755,0.642c0.214-0.02,0.511-0.095,0.607-0.248
		c0.285-0.452,0.008-0.655-0.434-0.763C556.262,269.064,556.715,268.226,555.966,268.214z M556.709,264.007
		c-0.475,1.14-0.636,2.325-0.244,3.875C557.09,266.403,556.851,265.215,556.709,264.007z M557.163,268.338
		c0.676-1.343,0.676-1.343,0.155-2.792C557.253,266.719,557.208,267.528,557.163,268.338z"/>
	<path fill-rule="evenodd" clip-rule="evenodd" fill="#D20EE2" d="M620.398,344.758c-0.313-0.267-0.692-0.524-1.081-0.394
		c-3.062,1.028-6.112,2.095-9.14,3.14c0.416,1.685,1.813,0.848,2.632,1.384c-0.004,0.84-1.143,1.152-0.869,2.066
		c-1.354-0.366-2.686-0.575-3.506-1.867c-0.352-0.555-0.97-0.335-1.516-0.087c-2.868,1.306-5.777,2.477-8.832,3.312
		c-1.106,0.302-2.159,1.055-3.054,1.816c-1.334,1.135-2.699,2.208-4.17,3.152c-1.152,0.739-2.331,1.447-1.9,3.165
		c0.066,0.268-0.184,0.632-0.527,0.711c-0.71,0.164-0.42-0.432-0.517-0.73c-0.282-0.871-0.914-0.799-1.522-0.482
		c-1.221,0.634-2.549,0.909-3.856,1.247c-0.604,0.156-1.195,0.411-1.869,0.277c-1.382-0.273-2.666,0.303-3.475,1.222
		c-1.603,1.818-3.67,2.118-5.81,2.248c-1.978,0.119-3.449,0.947-4.527,2.563l0.037-0.036c-1.884-0.036-2.275-0.441-1.764-1.932
		c0.444-1.291,1.129-2.482,1.934-3.572c2.115-2.865,2.938-6.097,3.246-9.606c0.518-5.911,1.955-11.634,4.109-17.176
		c0.81-2.082,2.413-3.334,4.232-4.393c2.537-1.475,4.008-3.603,4.167-6.574c0.004-0.079,0.018-0.158,0.027-0.238
		c0.381-3.141,1.932-5.522,4.613-7.198c0.927-0.578,2.019-0.987,2.485-2.115l-0.042,0.042c0.551-0.08,0.759-0.543,1.001-0.938
		c2.419-3.956,4.713-7.951,5.676-12.588c0.516-2.479,0.946-5.027,2.453-7.204c0.295-0.427,0.512-1.139,0.369-1.596
		c-0.599-1.92,0.384-3.334,1.229-4.874c1.294-2.355,1.122-2.973-1.007-4.61c-0.521-0.399-0.796-0.795-1.008-1.466
		c-0.733-2.328-1.838-4.445-4.453-5.211c-0.914-0.268-1.158-1.051-1.337-1.832c-0.562-2.46-2.588-3.751-4.226-5.351
		c-0.582-0.567-1.117-0.298-1.702,0.1c-2.484,1.689-3.824,1.267-4.689-1.622c-0.536-1.791-1.703-2.822-3.091-4.015
		c-4.219-3.625-9.001-6.604-12.498-11.084c-2.349-3.007-5.351-5.521-6.656-9.53c0.717-0.497,1.504-1.123,2.365-1.619
		c1.041-0.599,1.039-1.261,0.37-2.133c-1.509-1.964-2.974-3.961-4.491-5.917c-0.845-1.088-1.65-2.165-1.562-3.645
		c0.04-0.687-0.328-1.224-0.719-1.731c-1.305-1.693-2.054-3.81-3.921-5.078c-0.551-0.374-0.277-0.808,0.061-1.201
		c0.568-0.662,1.126-1.334,2.109-2.503c0.28,2.253,1.402,3.345,2.303,4.595c1.96,2.72,3.832,5.503,5.719,8.276
		c6.667,9.792,14.274,18.83,22.063,27.733c5.491,6.275,11.679,11.815,17.857,17.363c4.946,4.441,10.553,8.008,16.391,11.137
		c2.776,1.489,5.946,2.058,9.166,1.946c0.988-0.034,1.853-0.403,2.726-0.82c2.063-0.987,3.663-0.532,4.75,1.3
		c0.216,0.364,0.138,0.751,0.09,1.152c-1.011,8.479-2.056,16.955-2.995,25.442c-0.747,6.741-1.363,13.497-2.037,20.247
		c-0.04,0.397-0.053,0.8-0.119,1.192c-0.171,1.013-0.1,2.2-0.624,2.982c-0.531,0.794-1.797,0.296-2.721,0.478
		c-1.409,0.277-2.824,0.55-4.206,0.937c-0.638,0.179-1.465,0.271-1.616,1.186C620.749,344.387,620.574,344.572,620.398,344.758z"/>
	<path fill-rule="evenodd" clip-rule="evenodd" fill="#E063D1" d="M563.771,369.129c-0.1,1.06-0.178,2.073-0.293,3.081
		c-0.199,1.762-0.294,3.505,0.524,5.164c0.562,1.138,0.258,2.195-0.426,3.151c-1.502,2.103-1.946,4.473-2.071,7.001
		c-0.179,3.605-0.616,7.175-2.969,10.168c-0.559,0.71-0.811,1.467,0.241,1.951c0.826,0.381,0.916,0.975,0.793,1.76
		c-0.185,1.182-0.302,2.375-0.461,3.561c-0.2,1.495-0.285,1.612-1.826,1.266c-3.038-0.684-6.092-1.262-9.184-1.629
		c-5.388-0.639-10.761-1.355-16.189-1.682c-4.049-0.242-8.063-1.066-12.094-1.625c-2.134-0.296-4.267-0.604-6.405-0.851
		c-0.999-0.115-1.396-0.539-1.246-1.564c0.288-1.974,0.423-3.974,0.792-5.931c0.227-1.2-0.155-1.644-1.278-1.678
		c-0.156-0.005-0.31-0.079-0.466-0.109c-2.611-0.516-2.665-0.522-2.336-3.053c0.904-6.965,1.896-13.918,2.76-20.887
		c0.161-1.295,0.564-1.6,1.814-1.373c2.432,0.44,4.89,0.739,7.341,1.071c1.428,0.194,1.972,0.34,2.141-1.555
		c0.49-5.483,1.129-10.954,1.753-16.425c0.987-8.643,2-17.282,3.029-25.921c0.212-1.782,0.551-1.923,2.11-1.117
		c2.191,1.132,3.911,3.107,6.312,3.811c4.217,1.234,7.896,4.249,12.659,3.729c1.49-0.162,2.2,0.53,2.515,2.01
		c0.265,1.243,0.543,2.523,0.516,3.781c-0.089,4.188,0.392,8.292,1.58,12.298c0.619,2.086,0.697,4.228,0.921,6.357
		c0.044,0.422,0.135,0.978,0.526,0.943c1.567-0.138,1.52,1.146,1.812,2.018c0.638,1.895,1.003,3.842,0.981,5.871
		c-0.012,1.172-0.688,1.953-1.352,2.65c-0.957,1.007-2.231,0.754-3.141-0.44c-0.198-0.26-0.32-0.574-0.698-0.508
		c-0.554,0.097-0.471,0.589-0.468,0.949c0.008,1.092,1.874,2.868,3.044,2.878c0.807,0.007,1.803-0.628,2.186,0.649
		c0.351,1.171-0.268,2.715-1.532,3.13c-1.255,0.411-1.367,1.186-1.273,2.193c0.089,0.96,0.629,1.232,1.471,0.697
		c1.327-0.844,2.719-1.643,3.426-3.166c0.521-1.122,1.143-2.057,2.606-2.016C562.445,369.755,562.727,368.95,563.771,369.129z"/>
	<path fill-rule="evenodd" clip-rule="evenodd" fill="#1F57AA" d="M547.954,250.49c-1.718,25.446-4.698,50.653-6.982,76.034
		c-3.229-0.946-6.061-2.224-8.789-4.067c-4.004-2.707-8.739-3.802-13.513-4.384c-1.902-0.232-3.793-0.458-5.666-0.864
		c-2.401-0.521-4.817-0.979-7.216-1.514c-2.196-0.49-4.452-0.007-6.646-0.463c-0.86,0.853-1.68,0.162-2.568,0.035
		c-0.986-0.141-2.034,0.177-3.058,0.261c-0.331,0.026-0.605-0.169-0.937-0.645c0.368-0.159,0.725-0.33,1.095-0.469
		c0.447-0.168,0.918-0.278,1.355-0.467c2.276-0.979,3.789-4.004,3.211-6.364c-0.143-0.579-0.472-1.048-0.961-1.322
		c-1.003-0.563-1.122-1.362-1.002-2.429c0.616-5.475,1.142-10.958,1.74-16.435c0.355-3.252,0.782-6.497,1.188-9.744
		c0.162-1.306-0.125-2.734,1.219-3.704c0.274-0.198,0.208-0.89,0.269-1.357c0.221-1.727,0.429-3.456,0.642-5.182
		c0.395-0.018,0.651-0.096,0.862-0.028c0.973,0.315,2.302-0.167,2.911,0.684c0.531,0.741-0.232,1.847-0.145,2.799
		c0.073,0.792-0.648,2.145,0.503,2.246c1.445,0.127,0.771-1.405,0.992-2.221c0.123-0.457,0.093-0.954,0.184-1.423
		c0.287-1.498,0.578-1.646,2.111-1.382c0.721,0.124,0.918,0.436,0.812,1.127c-0.168,1.104-0.275,2.217-0.391,3.329
		c-0.058,0.552,0.132,0.895,0.769,0.949c0.592,0.05,0.974-0.2,1.063-0.717c0.162-0.941,0.194-1.905,0.326-2.853
		c0.195-1.405,1.662-2.16,2.485-1.111c0.982,1.252,2.108,1.23,3.355,1.278c0.781,0.029,1.424,0.175,1.58,1.098
		c0.122,0.729,0.612,1.074,1.325,1.146c1.521-4.246,1.655-8.712,2.198-13.108c0.382-3.091,0.688-6.191,1.045-9.285
		c0.045-0.39,0.174-0.777,0.311-1.147c0.455-1.224,1.588-1.624,2.287-0.596c0.713,1.047,1.518,0.832,2.443,0.97
		c2.411,0.36,4.988-0.146,7.205,1.279c0.516,0.332,0.905,0.061,1.303-0.204c2.014-1.338,2.009-1.336,3.719,0.277
		c0.358,0.339,0.704,0.337,0.861-0.196c0.12-0.409,0.281-0.837,0.759-0.734C544.135,250.002,546.207,249.594,547.954,250.49z"/>
	<path fill-rule="evenodd" clip-rule="evenodd" fill="#5AC0F9" d="M453.807,325.963c-0.483-0.409-1.02-0.732-1.425-1.262
		c-0.759-0.99-2.678-0.918-2.977,0.229c-0.392,1.505-1.258,0.873-1.716,0.499c-0.993-0.812-1.816-1.706-2.938-0.261
		c-0.207,0.267-0.462,0.174-0.63,0.068c-1.556-0.982-3.114-0.36-4.639,0.021c-1.362,0.341-2.676,0.619-4.124,0.655
		c-3.64,0.091-7.201,0.988-10.793,1.564c-0.624,0.1-1.237,0.312-1.831,0.537c-0.707,0.269-1.254,0.436-2.157,0.264
		c-1.625-0.309-3.107,0.956-4.677,1.479c-0.814,0.272-0.666,0.97-0.884,1.766c-1.256-1.457-2.438-0.945-3.682-0.08
		c-1.435,0.998-2.94,1.894-4.619,2.964c-1.972-5.274-3.947-10.354-6.315-15.265c0.375-0.17,0.537-0.312,0.639-0.278
		c0.858,0.287,1.571,1.234,2.579,0.799c1.516-0.653,3.189-1.116,4.258-2.501c0.897-1.163,0.596-2.562-0.014-3.604
		c-0.621-1.062-0.313-1.723,0.387-2.264c1.61-1.242,2.785-3.021,4.713-3.857c0.732-0.317,0.885-0.86,0.765-1.552
		c-0.304-1.75,0.269-2.868,2.062-3.467c1.237-0.412,1.437-2.514,0.379-3.817c-0.507-0.625-0.957-1.262-1.414-2.056
		c0.818-0.757,1.876-1.107,2.875-1.541c8.862-3.845,17.719-7.703,26.606-11.487c1.45-0.617,2.316-1.288,2.435-3.053
		c0.191-2.859,0.827-5.686,1.113-8.542c0.119-1.184,0.598-1.529,1.653-1.432c0.238,0.022,0.479,0.008,0.72,0
		c2.419-0.078,2.773-0.644,1.833-2.937c-0.436-1.061-1.151-1.908-2.021-2.639c-1.103-0.925-2.249-1.805-3.291-2.794
		c-1.896-1.8-2.603-4.053-1.876-6.558c0.73-2.52,2.17-4.729,3.434-7.251c1.426,1.819,3.233,2.688,4.866,3.783
		c0.957,0.642,1.257,1.266,0.764,2.387c-0.509,1.159-0.764,2.426-1.17,3.633c-1.048,3.109-0.352,5.957,1.245,8.682
		c0.16,0.273,0.506,0.634,0.432,0.818c-0.688,1.698,0.814,2.523,1.478,3.606c1.08,1.766,2.369,3.412,3.651,5.045
		c2.235,2.847,4.978,4.675,8.83,4.358c1.904-0.156,3.833-0.095,5.924,0.669c-0.735,6.833-1.349,13.722-2.243,20.574
		c-1.387,10.611-2.021,18.327-1.429,20.376c-0.376,0.202-0.811,0.276-1.142,0.038c-0.937-0.674-1.858-0.421-2.708,0.052
		c-1.692,0.939-3.43,0.911-5.259,0.561c-2.682-0.514-5.363-0.793-7.775,1.115c0.219,0.488,0.444,0.99,0.669,1.492
		C454.182,325.656,453.994,325.81,453.807,325.963z"/>
	<path fill-rule="evenodd" clip-rule="evenodd" fill="#FFE1F7" d="M481.335,395.252c-5.473-0.699-11.097-1.413-16.72-2.137
		c-4.354-0.561-8.704-1.143-13.06-1.695c-2.094-0.266-2.812-1.087-2.492-3.158c0.118-0.771,0.053-1.662,0.624-2.282
		c1.588-1.724,1.682-3.92,1.937-6.039c1.048-8.718,1.979-17.449,3.075-26.159c1.147-9.107,2.438-18.196,3.657-27.294
		c0.138-1.028,0.202-2.067,0.328-3.098c0.092-0.753,0.478-1.153,1.296-0.95c0.464,0.114,0.928,0.241,1.399,0.311
		c1.842,0.271,3.692,0.939,5.41-0.54c0.687-0.593,1.553-0.468,2.475-0.112c1.335,0.516,1.823,0.252,2.228-1.134
		c0.225-0.771,0.703-1.113,1.293-1.22c1.891-0.341,3.697-1.498,5.489-1.479c4.09,0.045,7.552-2.056,11.403-2.697
		c0.078-0.013,0.152-0.047,0.23-0.064c3.132-0.722,3.082-0.711,2.701,2.401c-0.746,6.103-1.356,12.222-2.112,18.322
		c-1.01,8.164-1.492,16.383-2.466,24.546c-1.314,11.018-2.864,22.008-4.32,33.008C483.497,395.396,483.479,395.395,481.335,395.252z
		"/>
	<path fill-rule="evenodd" clip-rule="evenodd" fill="#F0A6F4" d="M510.939,399.054c-4.119-0.504-8.237-0.982-12.348-1.519
		c-4.271-0.557-8.527-1.244-12.807-1.716c-1.383-0.152-1.512-0.707-1.354-1.845c0.724-5.215,1.444-10.432,2.076-15.658
		c1.092-9.026,2.537-18.007,3.222-27.085c0.606-8.035,1.659-16.028,2.638-24.026c0.417-3.405,0.762-6.819,1.152-10.228
		c0.07-0.611-0.042-1.452,0.708-1.619c0.738-0.166,1.478-0.114,1.769,1.01c0.227,0.872,1.299,0.781,2.076,0.833
		c0.816,0.053,0.81-0.609,0.828-1.167c0.031-0.972,0.698-0.833,1.353-0.871c3.624-0.213,7.096,0.737,10.595,1.41
		c2.805,0.538,5.568,1.267,8.445,1.391c2.09,0.09,4.076,0.729,6.025,1.44c1.81,0.662,1.856,0.703,1.652,2.567
		c-0.521,4.76-1.101,9.513-1.655,14.268c-0.721,6.181-1.451,12.359-2.154,18.542c-0.343,3.013-0.668,6.027-0.931,9.048
		c-0.09,1.04-0.484,1.386-1.518,1.231c-2.523-0.378-5.055-0.717-7.589-1.015c-1.869-0.22-1.943-0.189-2.207,1.729
		c-0.75,5.452-1.433,10.914-2.153,16.37c-0.292,2.215-0.602,4.427-0.929,6.637c-0.165,1.114,0.058,1.695,1.384,1.901
		c3.088,0.479,3.084,0.575,2.576,3.636C511.535,395.879,511.71,397.521,510.939,399.054z"/>
	<path fill-rule="evenodd" clip-rule="evenodd" fill="#F97C4B" d="M446.215,325.35c0.974,0.916,2.092,1.445,3.458,1.339
		c0.719-0.056,1.235-0.027,0.821-1.088c-0.325-0.836,0.659-0.963,0.951-0.596c0.63,0.792,2.105,1.123,1.622,2.635
		c-0.182,0.565-0.107,1.208,0.612,1.319c0.606,0.093,1.033-0.396,1.275-0.901c0.338-0.705,0.641-1.387,0.402-2.276
		c-0.42-1.571-0.22-1.822,1.298-2.344c0.29-0.101,0.627-0.064,1.069-0.103c0.464,2.198-0.264,4.271-0.521,6.353
		c-1.021,8.237-2.164,16.459-3.216,24.692c-0.891,6.967-1.718,13.942-2.571,20.914c-0.077,0.633-0.12,1.271-0.213,1.901
		c-0.493,3.349-0.169,6.848-2.396,9.843c-0.954,1.285-0.562,3.062-0.428,4.653c-0.729,0.452-1.454,0.164-2.128,0.084
		c-3.962-0.474-7.9-1.124-11.894-1.339c-1.852-0.101-2.018-0.265-1.66-1.975c0.355-1.697,0.357-3.317-0.252-4.938
		c-0.136-0.359-0.442-0.884-0.036-1.081c1.592-0.774,1.216-2.334,1.401-3.563c0.521-3.472,0.851-6.973,1.227-10.465
		c0.188-1.735,0.071-1.855-1.58-2.244c-0.881-0.207-1.726-0.048-2.603,0.103c-1.927,0.329-2.372,0.029-2.964-1.82
		c-0.877-2.74-1.455-5.554-2.081-8.358c-0.695-3.109,0.127-2.688-3.279-2.879c-4.623-0.259-9.271-0.067-13.908-0.068
		c-2.072,0-4.144,0-6.599,0c1.613-3.522,0.795-6.786,0.165-10.072c-0.576-2.997,0.434-5.021,3.001-6.62
		c2.168-1.352,4.326-2.73,6.393-4.229c1.077-0.781,1.856-0.746,2.93-0.004c1.493,1.034,1.736,0.846,1.778-0.99
		c0.005-0.22-0.135-0.431,0.03-0.659c0.373-0.518,3.725-1.552,4.328-1.208c0.56,0.318,0.956,0.428,1.487-0.032
		c1.075-0.931,2.429-1.218,3.783-1.302c2.843-0.178,5.545-1.257,8.416-1.241c0.935,0.005,1.91-0.375,2.565,0.7
		c0.207,0.34,0.67,0.178,0.809-0.08c0.969-1.803,2.876-1.392,4.386-1.892c0.771-0.255,1.353,0.332,1.974,0.669
		C445.392,326.903,445.391,326.906,446.215,325.35z"/>
	<path fill-rule="evenodd" clip-rule="evenodd" fill="#1477DB" d="M470.971,320.423c0.374-3.916,0.701-7.564,1.077-11.209
		c0.565-5.476,1.162-10.948,1.749-16.421c0.356-3.333,0.736-6.664,1.069-9.999c0.116-1.163,0.52-1.816,1.818-1.421
		c0.221,0.066,0.491,0.079,0.711,0.019c1.024-0.281,0.981-2.313,2.623-1.604c0.664-0.828,1.382-1.62,1.975-2.496
		c0.535-0.789,0.166-1.674-0.409-2.157c-1.238-1.04-0.396-1.42,0.442-1.783c1.414-0.611,2.656-1.693,4.338-1.604
		c0.305,0.016,0.614-0.157,0.926-0.189c1.142-0.117,1.719-1.011,1.856-1.879c0.153-0.973-0.409-1.895-1.573-2.046
		c-0.736-0.096-0.928-0.458-0.847-1.126c0.102-0.833,0.684-0.746,1.244-0.678c1.189,0.145,2.373,0.332,3.563,0.461
		c0.87,0.095,1.603,0.25,1.398,1.411c-0.127,0.722,0.326,0.978,0.961,1.069c0.71,0.103,1.412,0.26,2.122,0.363
		c0.749,0.109,1.279-0.145,1.28-0.987c0-1.063,0.676-1.005,1.451-1.05c0.8-0.046,0.967,0.293,0.901,0.95
		c-0.182,1.828-0.214,3.688-0.586,5.476c-0.929,4.466-1.191,9.012-1.767,13.519c-0.708,5.541-1.237,11.104-1.863,16.656
		c-0.121,1.07-0.208,2.122,0.842,2.79c0.992,0.631,1.308,1.362,1.117,2.6c-0.244,1.582-0.596,2.979-2.059,3.831
		c-0.479,0.278-1.01,0.483-1.538,0.657c-4.088,1.345-8.262,2.436-12.187,4.26c-0.619,0.288-1.419,0.156-2.106,0.331
		C476.739,318.872,473.988,319.62,470.971,320.423z"/>
	<path fill-rule="evenodd" clip-rule="evenodd" fill="#FFFFFF" d="M510.485,268.891c0.183,1.249,0.26,2.487-0.413,3.858
		C509.569,271.239,510.345,270.096,510.485,268.891z"/>
	<path fill-rule="evenodd" clip-rule="evenodd" fill="#FFFFFF" d="M548.322,254.76c0.319,0.84,0.293,1.782,0,2.731
		C548.322,256.581,548.322,255.671,548.322,254.76z"/>
	<path fill-rule="evenodd" clip-rule="evenodd" fill="#FFFFFF" d="M547.964,261.585c-0.356-0.931-0.097-1.705,0-2.478
		C547.964,259.841,547.964,260.573,547.964,261.585z"/>
	<path fill-rule="evenodd" clip-rule="evenodd" fill="#FFFFFF" d="M557.389,372.864c-0.503,0.712-1.25,0.75-2.104,0.928
		c0.079-1.371,1.389-0.732,1.75-1.399C557.152,372.55,557.271,372.707,557.389,372.864z"/>
	<path fill-rule="evenodd" clip-rule="evenodd" fill="#FFFFFF" d="M636.012,288.23c-0.191,0.413-0.382,0.827-0.574,1.241
		c-0.437-0.013-0.843-0.158-0.76-0.658C634.81,288.015,635.548,288.392,636.012,288.23z"/>
	<path fill-rule="evenodd" clip-rule="evenodd" fill="#FFFFFF" d="M564.773,368.92c-0.062-0.122-0.171-0.243-0.171-0.365
		c0-0.123,0.107-0.247,0.167-0.37c0.068,0.123,0.189,0.246,0.19,0.37C564.962,368.676,564.841,368.798,564.773,368.92z"/>
	<path fill-rule="evenodd" clip-rule="evenodd" fill="#FFFFFF" d="M454.368,325.503c0.238,0.495,0.248,0.997,0.111,1.542
		c-0.564-0.21-0.42-0.763-0.673-1.083C453.994,325.81,454.182,325.656,454.368,325.503z"/>
	<path fill-rule="evenodd" clip-rule="evenodd" fill="#FFFFFF" d="M613.786,348.52c-0.104,0.087-0.239,0.219-0.394,0.325
		c-0.297,0.204-0.347-0.11-0.481-0.244c0.107-0.104,0.198-0.244,0.327-0.3C613.43,348.218,613.666,348.125,613.786,348.52z"/>
	<path fill-rule="evenodd" clip-rule="evenodd" fill="#FFFFFF" d="M557.034,372.393c0.187-0.073,0.477-0.259,0.542-0.199
		c0.318,0.291,0.062,0.495-0.188,0.671C557.271,372.707,557.152,372.55,557.034,372.393z"/>
	<path fill-rule="evenodd" clip-rule="evenodd" fill="#FFFFFF" d="M620.925,344.2c0.122,0.221,0.484,0.402,0.203,0.699
		c-0.272,0.287-0.498-0.023-0.729-0.143C620.574,344.572,620.749,344.387,620.925,344.2z"/>
	<path fill-rule="evenodd" clip-rule="evenodd" fill="#FFFFFF" d="M566.858,265.255c0.959,0.444,0.268,1.302,0.485,1.932
		l0.038-0.042c-1.188,0.097-0.837-0.835-0.965-1.447l-0.035,0.042c0.441,0.101,0.506-0.182,0.522-0.514L566.858,265.255z"/>
	<path fill-rule="evenodd" clip-rule="evenodd" fill="#646464" d="M566.417,265.698c0.128,0.612-0.224,1.543,0.965,1.447
		c-1.017,0.897-1.662,2.045-2.211,3.294C564.668,268.596,564.84,266.962,566.417,265.698z"/>
	<path fill-rule="evenodd" clip-rule="evenodd" fill="#646464" d="M555.966,268.214c0.749,0.012,0.296,0.851,0.79,0.972
		c0.441,0.107,0.719,0.311,0.434,0.763c-0.097,0.153-0.394,0.228-0.607,0.248c-0.441,0.041-0.757-0.18-0.755-0.642
		C555.828,269.103,555.917,268.652,555.966,268.214z"/>
	<path fill-rule="evenodd" clip-rule="evenodd" fill="#646464" d="M556.709,264.007c0.142,1.208,0.381,2.396-0.244,3.875
		C556.073,266.332,556.234,265.146,556.709,264.007z"/>
	<path fill-rule="evenodd" clip-rule="evenodd" fill="#646464" d="M557.163,268.338c0.045-0.81,0.09-1.62,0.155-2.792
		C557.839,266.996,557.839,266.996,557.163,268.338z"/>
	<path fill-rule="evenodd" clip-rule="evenodd" fill="#646464" d="M566.904,265.226c-0.017,0.332-0.081,0.615-0.522,0.514
		C566.356,265.366,566.301,264.96,566.904,265.226z"/>
</g>
<text transform="matrix(1 0 0 1 677.75 324.8125)" font-family="'KohinoorBangla-Regular'" font-size="21">10</text>
<text transform="matrix(1 0 0 1 257.75 235.8125)" font-family="'KohinoorBangla-Regular'" font-size="21">13</text>
<text transform="matrix(1 0 0 1 345.25 141.8125)" font-family="'KohinoorBangla-Regular'" font-size="21">15</text>
<text transform="matrix(1 0 0 1 239.2397 396.3105)" font-family="'KohinoorBangla-Regular'" font-size="21">12</text>
<text transform="matrix(1 0 0 1 440.2344 309.7148)" font-family="'KohinoorBangla-Regular'" font-size="21">1</text>
<text transform="matrix(1 0 0 1 479.876 302.6006)" font-family="'KohinoorBangla-Regular'" font-size="21">2</text>
<text transform="matrix(1 0 0 1 516.2637 300.6426)" font-family="'KohinoorBangla-Regular'" font-size="21">3</text>
<text transform="matrix(1 0 0 1 426.9502 350.9043)" font-family="'KohinoorBangla-Regular'" font-size="21">14</text>
<text transform="matrix(1 0 0 1 466.2832 357.0938)" font-family="'KohinoorBangla-Regular'" font-size="21">8</text>
<text transform="matrix(1 0 0 1 500.2832 358.0938)" font-family="'KohinoorBangla-Regular'" font-size="21">7</text>
<text transform="matrix(1 0 0 1 533.6162 380.4268)" font-family="'KohinoorBangla-Regular'" font-size="21">6</text>
<text transform="matrix(1 0 0 1 561.6162 305.0938)" font-family="'KohinoorBangla-Regular'" font-size="21">4</text>
<text transform="matrix(1 0 0 1 603.9502 324.8125)" font-family="'KohinoorBangla-Regular'" font-size="21">5</text>
<text transform="matrix(1 0 0 1 654.75 387.4795)" font-family="'KohinoorBangla-Regular'" font-size="21">9</text>
<text transform="matrix(1 0 0 1 550.2832 497.2373)" font-family="'KohinoorBangla-Regular'" font-size="21">11</text>
</svg>
