<?xml version="1.0" encoding="utf-8"?>
<!-- Generator: Adobe Illustrator 16.0.4, SVG Export Plug-In . SVG Version: 6.00 Build 0)  -->
<!DOCTYPE svg PUBLIC "-//W3C//DTD SVG 1.1//EN" "http://www.w3.org/Graphics/SVG/1.1/DTD/svg11.dtd">
<svg version="1.1" id="Layer_1" xmlns="http://www.w3.org/2000/svg" xmlns:xlink="http://www.w3.org/1999/xlink" x="0px" y="0px"
	 width="48px" height="48px" viewBox="0 0 48 48" enable-background="new 0 0 48 48" xml:space="preserve">
<path fill="none" stroke="#000000" stroke-width="1.5" stroke-linejoin="round" d="M20.25,8.25v13.5h3v-4.5h1.5
	c2.484,0,4.5-2.016,4.5-4.5s-2.016-4.5-4.5-4.5H20.25z M26.25,28.5v3 M21.75,28.5v3"/>
<path fill="none" stroke="#000000" stroke-width="1.5" stroke-linejoin="round" d="M23.25,14.25v-3h1.5c0.828,0,1.5,0.672,1.5,1.5
	s-0.672,1.5-1.5,1.5H23.25z"/>
<path fill="none" stroke="#000000" stroke-width="1.5" stroke-linejoin="round" d="M34.5,15c0,5.801-4.699,10.5-10.5,10.5
	S13.5,20.801,13.5,15S18.199,4.5,24,4.5S34.5,9.199,34.5,15"/>
<path fill="none" stroke="#000000" stroke-width="1.5" stroke-linejoin="round" d="M37.5,15c0,7.457-6.043,13.5-13.5,13.5
	S10.5,22.457,10.5,15S16.543,1.5,24,1.5S37.5,7.543,37.5,15"/>
<path fill="none" stroke="#000000" stroke-width="1.5" stroke-linejoin="round" d="M26.25,43.5v3.75 M21.75,43.5v3.75 M14.25,31.5
	h19.5v12h-19.5V31.5z"/>
<polygon fill="none" stroke="#000000" stroke-width="1.5" stroke-linejoin="round" points="18.75,36 25.5,36 25.5,33.75 29.25,37.5 
	25.5,41.25 25.5,39 18.75,39 "/>
</svg>
