<?xml version="1.0" encoding="UTF-8"?>
<svg width="752pt" height="752pt" version="1.1" viewBox="0 0 752 752" xmlns="http://www.w3.org/2000/svg">
 <g>
  <path d="m597.99 590.59v-88.797c0-1.9648-0.78125-3.8438-2.168-5.2344-1.3867-1.3867-3.2695-2.1641-5.2305-2.1641h-258.99c-2.4727 0-4.7812 1.2344-6.1562 3.293l-27.855 41.785-72.223 13.133-20.031-53.41c-1.082-2.8906-3.8438-4.8008-6.9258-4.8008h-37c-4.0859 0-7.3984 3.3125-7.3984 7.3984v88.797c0 1.9609 0.77734 3.8438 2.1641 5.2305 1.3906 1.3867 3.2734 2.168 5.2344 2.168h429.18c1.9609 0 3.8438-0.78125 5.2305-2.168s2.168-3.2695 2.168-5.2305zm-262.43-81.398h247.63v14.801h-257.49zm-142.28 0 5.5508 14.801h-30.023v-14.801zm-24.473 73.996v-44.398h35.57l9.3008 24.801c1.2578 3.3477 4.7305 5.3203 8.25 4.6797l81.398-14.801v0.003906c1.9766-0.35937 3.7188-1.5078 4.832-3.1758l7.6719-11.508h267.36v44.398z"/>
  <path d="m150.7 471.42 6.6172-13.238 29.598 14.801-6.6172 13.238z"/>
  <path d="m150.7 441.82 6.6172-13.238 29.598 14.801-6.6172 13.238z"/>
  <path d="m150.7 412.22 6.6172-13.238 29.598 14.801-6.6172 13.238z"/>
  <path d="m194.84 393.3 16.48 93.465c0.33984 1.9336 1.4336 3.6523 3.0391 4.7773 1.6094 1.1289 3.6016 1.5664 5.5312 1.2266l3.8555 21.863 0.003906-0.003907c1.0156 5.8008 4.3008 10.957 9.1211 14.336 4.8242 3.375 10.793 4.6953 16.59 3.6719l29.148-5.1406h0.003906c5.793-1.0273 10.941-4.3125 14.316-9.1328 3.3789-4.8203 4.7031-10.785 3.6914-16.582l-3.8555-21.863 29.148-5.1406v0.003906c1.1289-0.19922 2.1992-0.66016 3.1211-1.3438l11.887-8.8164 113.16-19.953 14.188 4.2148c1.1016 0.32812 2.2617 0.39453 3.3945 0.19531l29.148-5.1406 3.8555 21.863c0.90625 5.1328 3.5859 9.7812 7.5742 13.137 3.9883 3.3555 9.0273 5.1992 14.238 5.2148 1.3086 0 2.6172-0.11719 3.9023-0.34375l29.152-5.1406c5.793-1.0273 10.945-4.3125 14.32-9.1328 3.375-4.8203 4.6992-10.785 3.6875-16.582l-3.8555-21.863v0.003906c1.9336-0.33984 3.6484-1.4375 4.7773-3.043 1.125-1.6094 1.5664-3.5977 1.2227-5.5312l-16.477-93.465c-2.1016-12.09-8.9492-22.84-19.02-29.852l-15.047-10.535 33.418-5.8945c3.8633-0.68359 7.2969-2.875 9.5469-6.0898s3.1328-7.1875 2.457-11.055l-1.5156-8.6016c-0.60156-3.3672-2.3477-6.4219-4.9414-8.6484-2.5938-2.2266-5.8789-3.4922-9.2969-3.5781l-22.633-0.51953v0.003906c-4.4297-0.10156-8.6758 1.7891-11.566 5.1523-2.8867 3.3633-4.1172 7.8477-3.3438 12.211l2.2891 12.973-10.07 1.7773-34.301-46.25h-0.003907c-4.4844-6.0898-10.586-10.801-17.613-13.598-7.0273-2.8008-14.699-3.5742-22.141-2.2344l-163.51 28.832h-0.003906c-7.4531 1.2852-14.395 4.6367-20.043 9.6719-5.6445 5.0312-9.7656 11.547-11.898 18.805l-16.414 55.191-10.07 1.7773-2.2891-12.973h0.003907c-0.77344-4.3672-3.4609-8.1602-7.3242-10.332-3.8672-2.1719-8.5039-2.4961-12.633-0.88281l-21.09 8.2305c-3.1836 1.25-5.8359 3.5625-7.5117 6.543-1.6758 2.9805-2.2695 6.4453-1.6836 9.8164l1.5156 8.6016c0.67969 3.8672 2.8672 7.3047 6.0859 9.5547 3.2148 2.2539 7.1953 3.1328 11.059 2.4492l33.418-5.8906-10.535 15.047v-0.003907c-7.0625 10.031-9.8242 22.473-7.6641 34.547zm-17.793-58.277-1.5156-8.6016 21.09-8.2266 2.2891 12.973zm105 169.32c0.70312 4.0234-1.9805 7.8594-6.0039 8.5742l-29.148 5.1406c-4.0234 0.70312-7.8555-1.9805-8.5742-6.0039l-3.8555-21.863 43.723-7.7109zm270.92-40.254-29.152 5.1406c-4.0234 0.70703-7.8594-1.9766-8.5703-6.0039l-3.8555-21.863 43.723-7.7109 3.8555 21.863c0.70703 4.0273-1.9805 7.8633-6.0039 8.5742zm-21.133-205.01h0.003906l22.633 0.51562 1.5195 8.6016-21.867 3.8555-2.3008-12.973zm-68.539-20.113 29.895 40.305-82.355 14.523 35.531-65.008c6.7734 1.0078 12.863 4.6719 16.93 10.184zm-88.898 61.25 36.359-66.523 17.773-3.1328-36.359 66.523zm-120.23-24.371c1.3555-4.6172 3.9805-8.7617 7.5703-11.965 3.5938-3.2031 8.0117-5.3359 12.754-6.1562l117.6-20.738-36.359 66.52-115.88 20.438zm-39.535 91.387 19.027-27.168 270.88-47.766 27.168 19.023c6.8516 4.7695 11.508 12.078 12.934 20.301l15.195 86.176-14.574 2.5703-5.1406-29.148c-0.37109-2.1133-1.6406-3.9609-3.4805-5.0625-1.8398-1.1055-4.0703-1.3555-6.1094-0.6875l-49.227 16.117-21.344 3.7656 2.5703 14.574 21.863-3.8555c0.34375-0.058594 0.68359-0.14453 1.0156-0.25391l41.617-13.629 3.6562 20.746-63.863 11.262-14.184-4.2188c-1.1016-0.32422-2.2617-0.39062-3.3945-0.19141l-116.6 20.559c-1.1289 0.19922-2.1992 0.66016-3.1211 1.3438l-11.887 8.8164-63.867 11.262-3.6602-20.746 43.77-1.4297h0.003907c0.34766-0.011718 0.69922-0.046875 1.043-0.10938l21.863-3.8555-2.5703-14.574-21.344 3.7656-51.77 1.6914-0.003906-0.003906c-2.1445 0.070312-4.1523 1.0664-5.5039 2.7344-1.3516 1.6641-1.9141 3.8359-1.543 5.9453l5.1406 29.148-14.574 2.5742-15.191-86.176c-1.4727-8.2148 0.40234-16.676 5.207-23.5z"/>
  <path d="m225.63 397.5c0.81641 4.7422 2.9492 9.1602 6.1523 12.754s7.3516 6.2188 11.969 7.5742l20.762 6.1758c1.8789 0.55859 3.9062 0.34766 5.6328-0.58594l19.516-10.57 20.023-3.5312c2.1758 1.5859 4.5156 2.9336 6.9805 4.0156 10.363 4.5586 21.852 5.9375 33 3.9609l9.9297-1.75c8.7656-1.5547 17.051-5.1211 24.207-10.418l0.84766-0.62891 1.0117 0.30078v0.003906c8.5352 2.5273 17.539 3.043 26.309 1.5078l9.9297-1.75c11.152-1.957 21.477-7.1797 29.656-15.012 1.9414-1.8594 3.6797-3.9258 5.1836-6.1602l20.023-3.5312 21.961 3.2578c1.9414 0.28516 3.918-0.20703 5.4922-1.3789l17.398-12.902c3.875-2.8555 6.8711-6.7383 8.6523-11.207 1.7812-4.4727 2.2773-9.3555 1.4219-14.09l-1.7188-9.75c-0.73047-4.1445-3.1914-7.7812-6.7656-10-3.5781-2.2227-7.9297-2.8125-11.969-1.6328l-55.969 16.414-49.914 8.8008h0.003906c-6.0703 1.0664-11.93 3.1094-17.352 6.0469l-11.285 6.1055-12.688-1.8828c-6.0977-0.90625-12.301-0.82422-18.371 0.25l-49.91 8.8008-58.211 3.7227c-4.2031 0.26953-8.0898 2.3125-10.691 5.625-2.6016 3.3086-3.6719 7.5703-2.9414 11.719zm289.77-61.145 1.7188 9.75-0.003906-0.003906c0.74609 4.1445-0.92969 8.3477-4.3164 10.844l-14.938 11.078-20.113-2.9844c-0.78516-0.11719-1.5859-0.10547-2.3711 0.03125l-12.594 2.2188c0.085938-0.69141 0.16406-1.3867 0.21094-2.0859l0.97266-13.773zm-167.17 36.109c4.5039-0.79297 9.1055-0.85547 13.629-0.18359l15.129 2.2422c1.5859 0.23438 3.2031-0.050781 4.6133-0.8125l13.449-7.2812-0.003907-0.003906c4.0234-2.1758 8.3711-3.6914 12.875-4.4844l40.98-7.2266-0.66406 9.4492c-0.39063 5.5859-2.8516 10.82-6.9023 14.684-6.0664 5.8086-13.727 9.6836-22 11.137l-9.9336 1.7461c-6.5039 1.1367-13.184 0.75391-19.516-1.1211l-4.5586-1.3555c-2.2305-0.66406-4.6445-0.23828-6.5156 1.1484l-3.8203 2.832v0.003906c-5.3086 3.9258-11.457 6.5703-17.961 7.7266l-9.9297 1.75c-8.2734 1.4688-16.793 0.44531-24.484-2.9375-5.125-2.2461-9.2305-6.3242-11.504-11.438l-3.8594-8.6523zm-56.262 9.2969 5.625 12.609c0.28516 0.64062 0.59375 1.2695 0.91406 1.8867l-12.602 2.2227c-0.78516 0.14063-1.5391 0.40234-2.2383 0.78125l-17.879 9.6797-17.824-5.3008h0.003906c-4.0391-1.1836-7.0547-4.5625-7.7695-8.7109l-1.7188-9.7461z"/>
 </g>
</svg>
